<svg width="1920" height="2464" viewBox="0 0 1920 2464" fill="none" xmlns="http://www.w3.org/2000/svg">
<rect width="1920" height="2464" fill="black"/>
<circle cx="610.497" cy="402.497" r="67.203" stroke="white" stroke-width="2.58827"/>
<path d="M619.659 370.8C608.191 370.8 598.859 380.132 598.859 391.6H602.059C602.059 381.861 609.92 374 619.659 374C629.399 374 637.259 381.861 637.259 391.6H640.459C640.459 380.132 631.128 370.8 619.659 370.8Z" fill="white"/>
<path fill-rule="evenodd" clip-rule="evenodd" d="M590.856 358C584.69 358 579.656 363.034 579.656 369.2V446H582.856V369.2C582.856 364.763 586.419 361.2 590.856 361.2H610.056C614.493 361.2 618.056 364.763 618.056 369.2V372.4H621.256V369.2C621.256 363.034 616.223 358 610.056 358H590.856Z" fill="white"/>
<path fill-rule="evenodd" clip-rule="evenodd" d="M598.858 390C598.432 390 598.024 390.169 597.724 390.471C597.424 390.772 597.256 391.181 597.258 391.606L597.283 398.006C597.286 398.887 598.001 399.599 598.883 399.6H640.457C640.883 399.599 641.291 399.43 641.591 399.129C641.891 398.827 642.059 398.419 642.057 397.994L642.032 391.594C642.029 390.712 641.314 390 640.432 390L598.858 390ZM600.464 393.2H638.839L638.851 396.4H600.476L600.464 393.2Z" fill="white"/>
<path fill-rule="evenodd" clip-rule="evenodd" d="M634.055 404.4V414H637.255V404.4H634.055Z" fill="white"/>
<path fill-rule="evenodd" clip-rule="evenodd" d="M626.055 404.4V420.4H629.255V404.4H626.055Z" fill="white"/>
<path fill-rule="evenodd" clip-rule="evenodd" d="M618.055 404.4V414H621.255V404.4H618.055Z" fill="white"/>
<path fill-rule="evenodd" clip-rule="evenodd" d="M610.055 404.4V420.4H613.255V404.4H610.055Z" fill="white"/>
<path fill-rule="evenodd" clip-rule="evenodd" d="M602.055 404.4V414H605.255V404.4H602.055Z" fill="white"/>
<path fill-rule="evenodd" clip-rule="evenodd" d="M634.055 417.2V420.4H637.255V417.2H634.055Z" fill="white"/>
<path fill-rule="evenodd" clip-rule="evenodd" d="M602.055 417.204V420.404H605.255V417.204H602.055Z" fill="white"/>
<circle cx="1187.5" cy="571.497" r="67.203" stroke="white" stroke-width="2.58827"/>
<path d="M1200.4 592.418C1201.66 592.418 1202.87 591.971 1203.84 591.154C1204.8 590.338 1205.45 589.204 1205.66 587.953C1205.88 586.702 1205.65 585.414 1205.02 584.317C1207.05 583.897 1208.74 582.482 1209.52 580.544C1210.3 578.607 1210.07 576.403 1208.91 574.671C1211.01 574.36 1212.8 572.989 1213.67 571.037C1214.53 569.084 1214.35 566.82 1213.18 565.034H1223C1225.22 565.034 1227.27 563.841 1228.37 561.903C1229.48 559.966 1229.48 557.579 1228.37 555.642C1227.27 553.704 1225.22 552.511 1223 552.511H1201.34C1202.98 550.795 1203.9 548.499 1203.9 546.11C1203.9 545.264 1203.56 544.454 1202.97 543.856C1202.38 543.258 1201.57 542.922 1200.73 542.921H1175.09C1168.98 542.929 1163.05 545.016 1158.26 548.845C1156.63 550.152 1154.6 550.864 1152.52 550.866H1147.84C1146.96 550.867 1146.12 551.22 1145.5 551.847C1144.88 552.474 1144.53 553.324 1144.53 554.21V581.12C1144.53 582.006 1144.88 582.856 1145.5 583.482C1146.12 584.108 1146.96 584.461 1147.84 584.463H1152.52C1154.6 584.465 1156.62 585.177 1158.26 586.483C1163.05 590.317 1168.98 592.408 1175.1 592.416L1200.4 592.418ZM1200.4 589.605H1187.67C1186.76 589.605 1185.92 589.114 1185.46 588.316C1185.01 587.518 1185.01 586.536 1185.46 585.738C1185.92 584.941 1186.76 584.449 1187.67 584.449H1200.4C1201.31 584.449 1202.15 584.941 1202.61 585.738C1203.07 586.536 1203.07 587.519 1202.61 588.316C1202.15 589.114 1201.31 589.605 1200.4 589.605ZM1203.78 581.63H1188.53C1187.33 581.602 1186.23 580.939 1185.64 579.886C1185.05 578.832 1185.05 577.542 1185.64 576.488C1186.23 575.434 1187.33 574.772 1188.53 574.744H1203.78C1204.98 574.772 1206.07 575.434 1206.67 576.488C1207.26 577.542 1207.26 578.832 1206.67 579.886C1206.07 580.94 1204.98 581.602 1203.78 581.63ZM1211.42 568.478C1211.42 569.39 1211.06 570.265 1210.42 570.91C1209.78 571.555 1208.91 571.918 1208.01 571.919H1189.45C1188.23 571.919 1187.11 571.263 1186.5 570.197C1185.89 569.133 1185.89 567.821 1186.5 566.755C1187.11 565.691 1188.23 565.034 1189.45 565.034H1208H1208C1208.91 565.034 1209.78 565.397 1210.42 566.042C1211.06 566.688 1211.42 567.565 1211.42 568.478L1211.42 568.478ZM1159.99 584.275C1157.87 582.575 1155.23 581.65 1152.52 581.649H1147.84C1147.55 581.647 1147.32 581.412 1147.32 581.124V554.211C1147.32 554.072 1147.38 553.939 1147.47 553.84C1147.57 553.742 1147.7 553.686 1147.84 553.685H1152.52C1155.23 553.684 1157.87 552.759 1159.99 551.059C1164.29 547.62 1169.61 545.745 1175.1 545.738H1200.74C1200.84 545.738 1200.93 545.777 1201 545.848C1201.07 545.918 1201.11 546.013 1201.11 546.113C1201.11 547.809 1200.44 549.435 1199.26 550.634C1198.07 551.834 1196.46 552.51 1194.78 552.513H1186.29C1185.65 552.512 1185.09 552.954 1184.94 553.584C1183.7 558.649 1180.4 562.04 1175.13 563.665C1172.56 564.429 1169.88 564.746 1167.21 564.603C1166.44 564.535 1165.76 565.108 1165.69 565.885C1165.63 566.662 1166.19 567.348 1166.96 567.417C1169.96 567.595 1172.97 567.247 1175.85 566.389C1181.72 564.607 1185.67 560.797 1187.35 555.333H1223C1224.22 555.333 1225.34 555.989 1225.95 557.054C1226.56 558.119 1226.56 559.431 1225.95 560.496C1225.34 561.561 1224.22 562.217 1223 562.217H1189.45C1187.8 562.216 1186.21 562.882 1185.05 564.067C1183.88 565.253 1183.24 566.858 1183.25 568.527C1183.27 570.197 1183.94 571.791 1185.12 572.956C1183.53 574.018 1182.5 575.764 1182.35 577.689C1182.2 579.614 1182.94 581.501 1184.35 582.803C1183.37 583.593 1182.69 584.707 1182.44 585.95C1182.19 587.194 1182.38 588.486 1182.98 589.601H1175.1C1169.62 589.593 1164.29 587.716 1160 584.275L1159.99 584.275Z" fill="white"/>
<path d="M1219.31 560.181H1220.83C1221.22 560.21 1221.6 560.074 1221.89 559.808C1222.17 559.541 1222.33 559.166 1222.33 558.774C1222.33 558.383 1222.17 558.008 1221.89 557.741C1221.6 557.474 1221.22 557.339 1220.83 557.368H1219.31C1218.58 557.421 1218.02 558.035 1218.02 558.774C1218.02 559.513 1218.58 560.127 1219.31 560.181Z" fill="white"/>
<path d="M1223.04 578.624C1222.3 578.004 1221.23 578.004 1220.49 578.624C1218.8 580.04 1213.29 585.15 1213.29 591.44H1213.29C1213.29 594.499 1214.91 597.324 1217.53 598.853C1220.15 600.382 1223.38 600.382 1226.01 598.853C1228.63 597.324 1230.24 594.499 1230.24 591.44C1230.24 585.151 1224.73 580.04 1223.04 578.624H1223.04ZM1221.77 597.195C1220.26 597.192 1218.81 596.585 1217.75 595.508C1216.68 594.431 1216.08 592.97 1216.08 591.447C1216.08 590.564 1216.36 586.022 1221.77 581.237C1227.17 586.023 1227.45 590.564 1227.45 591.447C1227.45 592.969 1226.85 594.427 1225.78 595.503C1224.72 596.579 1223.27 597.185 1221.77 597.187L1221.77 597.195Z" fill="white"/>
<circle cx="961.5" cy="393.5" r="68.2059" stroke="white" stroke-width="2.58827"/>
<path d="M987.898 368.484V364.027C987.898 363.633 987.741 363.255 987.463 362.976C987.184 362.698 986.806 362.541 986.412 362.541V356.599C986.41 354.63 985.627 352.742 984.234 351.349C982.842 349.957 980.954 349.174 978.984 349.171H943.33C941.361 349.174 939.473 349.957 938.08 351.349C936.688 352.742 935.905 354.63 935.902 356.599V430.878C935.905 432.847 936.688 434.736 938.08 436.128C939.473 437.52 941.361 438.304 943.33 438.306H978.984C980.954 438.304 982.842 437.52 984.234 436.128C985.627 434.736 986.41 432.847 986.412 430.878V387.796C986.806 387.796 987.184 387.64 987.463 387.361C987.741 387.083 987.898 386.705 987.898 386.311V374.426C987.898 374.032 987.741 373.654 987.463 373.375C987.184 373.097 986.806 372.94 986.412 372.94V369.969C986.806 369.969 987.184 369.813 987.463 369.534C987.741 369.256 987.898 368.878 987.898 368.484ZM983.441 430.878C983.441 432.06 982.972 433.194 982.136 434.03C981.3 434.865 980.166 435.335 978.985 435.335H943.33C942.149 435.335 941.014 434.866 940.179 434.03C939.343 433.194 938.874 432.06 938.874 430.878V356.599C938.874 355.417 939.343 354.283 940.179 353.447C941.015 352.612 942.149 352.142 943.33 352.142H978.985C980.166 352.142 981.301 352.612 982.136 353.447C982.972 354.283 983.441 355.417 983.441 356.599V430.878Z" fill="white"/>
<path d="M961.157 353.628H956.7C955.88 353.628 955.215 354.293 955.215 355.114C955.215 355.934 955.88 356.599 956.7 356.599H961.157C961.978 356.599 962.643 355.934 962.643 355.114C962.643 354.293 961.978 353.628 961.157 353.628Z" fill="white"/>
<path d="M967.1 355.114C967.1 355.934 966.435 356.599 965.614 356.599C964.794 356.599 964.129 355.934 964.129 355.114C964.129 354.293 964.794 353.628 965.614 353.628C966.435 353.628 967.1 354.293 967.1 355.114Z" fill="white"/>
<circle cx="1429" cy="240" r="67.7059" stroke="white" stroke-width="2.58827"/>
<path d="M1437.98 276.36C1436.44 276.363 1434.96 275.752 1433.86 274.662C1432.77 273.571 1432.16 272.091 1432.16 270.547V222.69C1432.16 222.062 1432.67 221.553 1433.29 221.553C1433.92 221.553 1434.43 222.062 1434.43 222.69C1434.43 225.714 1435.25 228.682 1436.79 231.283C1438.33 233.885 1440.54 236.025 1443.19 237.478C1443.55 237.681 1443.77 238.065 1443.77 238.479V270.546C1443.77 272.085 1443.17 273.562 1442.08 274.652C1440.99 275.743 1439.52 276.357 1437.98 276.36V276.36H1437.98ZM1434.4 231.745V270.547C1434.34 271.518 1434.69 272.47 1435.36 273.177C1436.03 273.884 1436.96 274.285 1437.93 274.285C1438.9 274.285 1439.83 273.884 1440.5 273.177C1441.17 272.47 1441.52 271.518 1441.46 270.547V239.138C1438.48 237.359 1436.04 234.803 1434.4 231.745L1434.4 231.745Z" fill="white"/>
<path d="M1451.27 241.836C1445.31 241.844 1439.68 239.076 1436.05 234.347C1432.42 229.618 1431.2 223.467 1432.75 217.71C1434.3 211.954 1438.45 207.249 1443.96 204.982C1449.47 202.716 1455.73 203.148 1460.88 206.15C1462.63 207.197 1463.71 209.091 1463.7 211.132V234.271C1463.71 236.314 1462.64 238.209 1460.88 239.253C1457.96 240.947 1454.64 241.838 1451.27 241.835L1451.27 241.836ZM1451.27 205.832C1450.63 205.831 1449.99 205.865 1449.36 205.934C1445.57 206.365 1442.05 208.06 1439.35 210.743C1436.65 213.427 1434.93 216.943 1434.48 220.722C1433.9 225.509 1435.43 230.311 1438.65 233.895C1441.85 237.496 1446.43 239.564 1451.25 239.583C1454.22 239.59 1457.14 238.805 1459.71 237.308C1460.24 236.998 1460.68 236.554 1460.98 236.021C1461.28 235.487 1461.43 234.883 1461.43 234.27V211.132C1461.44 209.898 1460.8 208.748 1459.74 208.106C1457.17 206.607 1454.25 205.821 1451.27 205.831L1451.27 205.832V205.832Z" fill="white"/>
<path d="M1419.84 276.361C1418.29 276.361 1416.82 275.748 1415.73 274.658C1414.64 273.568 1414.02 272.089 1414.02 270.547V238.48C1414.02 238.064 1414.25 237.679 1414.62 237.479C1417.26 236.022 1419.47 233.881 1421.01 231.281C1422.55 228.679 1423.36 225.713 1423.36 222.691C1423.36 222.063 1423.87 221.554 1424.5 221.554C1425.13 221.554 1425.64 222.063 1425.64 222.691V270.548C1425.64 272.088 1425.03 273.565 1423.94 274.655C1422.85 275.744 1421.38 276.358 1419.84 276.361L1419.84 276.361ZM1416.3 239.14V270.548C1416.24 271.52 1416.59 272.471 1417.26 273.179C1417.93 273.886 1418.86 274.287 1419.83 274.287C1420.8 274.287 1421.73 273.886 1422.4 273.179C1423.07 272.471 1423.42 271.52 1423.36 270.548V231.747C1421.72 234.806 1419.28 237.362 1416.3 239.141L1416.3 239.14Z" fill="white"/>
<path d="M1406.49 241.835C1403.11 241.834 1399.8 240.939 1396.88 239.241C1395.13 238.199 1394.05 236.309 1394.06 234.27V211.132C1394.05 209.09 1395.13 207.197 1396.88 206.15C1402.03 203.164 1408.27 202.744 1413.77 205.012C1419.27 207.28 1423.41 211.979 1424.95 217.724C1426.5 223.47 1425.29 229.609 1421.67 234.333C1418.05 239.058 1412.44 241.83 1406.49 241.835V241.835H1406.49ZM1398.03 208.106C1396.97 208.742 1396.32 209.894 1396.33 211.132V234.27C1396.32 235.505 1396.97 236.653 1398.03 237.285C1400.6 238.781 1403.52 239.566 1406.49 239.56C1411.31 239.541 1415.89 237.473 1419.08 233.872C1422.31 230.288 1423.83 225.487 1423.26 220.7C1422.59 215.055 1419.13 210.126 1414.05 207.588C1408.96 205.05 1402.94 205.245 1398.03 208.106L1398.03 208.106V208.106Z" fill="white"/>
<path d="M1447.91 223.828H1440.48C1439.85 223.828 1439.34 223.319 1439.34 222.691C1439.34 222.063 1439.85 221.553 1440.48 221.553H1447.91C1448.53 221.553 1449.04 222.063 1449.04 222.691C1449.04 223.319 1448.53 223.828 1447.91 223.828Z" fill="white"/>
<path d="M1417.28 223.828H1409.85C1409.22 223.828 1408.71 223.319 1408.71 222.691C1408.71 222.063 1409.22 221.553 1409.85 221.553H1417.28C1417.9 221.553 1418.41 222.063 1418.41 222.691C1418.41 223.319 1417.9 223.828 1417.28 223.828Z" fill="white"/>
<circle cx="1547" cy="401" r="67.7059" stroke="white" stroke-width="2.58827"/>
<path d="M1521.61 390.792C1520.11 390.792 1518.99 389.542 1518.99 388.168C1518.99 386.669 1520.24 385.544 1521.61 385.544C1522.99 385.544 1524.24 386.794 1524.24 388.168C1524.24 389.543 1523.11 390.792 1521.61 390.792ZM1521.61 387.293C1521.11 387.293 1520.86 387.668 1520.86 388.043C1520.86 388.543 1521.24 388.793 1521.61 388.793C1521.99 388.793 1522.36 388.418 1522.36 388.043C1522.36 387.668 1521.99 387.293 1521.61 387.293Z" fill="white" stroke="white" stroke-width="0.5"/>
<path d="M1519.86 405.909C1518.36 405.909 1517.24 404.66 1517.24 403.286C1517.24 401.912 1518.49 400.662 1519.86 400.662C1521.24 400.662 1522.49 401.912 1522.49 403.286C1522.49 404.661 1521.36 405.909 1519.86 405.909ZM1519.86 402.411C1519.36 402.411 1519.11 402.786 1519.11 403.161C1519.11 403.536 1519.49 403.911 1519.86 403.911C1520.24 403.911 1520.61 403.536 1520.61 403.161C1520.61 402.786 1520.36 402.411 1519.86 402.411Z" fill="white" stroke="white" stroke-width="0.5"/>
<path d="M1522.36 421.275C1520.86 421.275 1519.74 420.026 1519.74 418.652C1519.74 417.278 1520.99 416.028 1522.36 416.028C1523.74 416.028 1524.99 417.278 1524.99 418.652C1524.99 420.026 1523.86 421.275 1522.36 421.275ZM1522.36 417.777C1521.86 417.777 1521.61 418.152 1521.61 418.527C1521.61 418.902 1521.99 419.277 1522.36 419.277C1522.74 419.277 1523.11 418.902 1523.11 418.527C1523.11 418.152 1522.86 417.777 1522.36 417.777Z" fill="white" stroke="white" stroke-width="0.5"/>
<path d="M1575.34 378.671H1563.47C1562.97 378.671 1562.47 378.296 1562.47 377.672C1562.47 377.048 1562.84 376.673 1563.47 376.673H1575.34C1575.84 376.673 1576.34 377.048 1576.34 377.672C1576.34 378.297 1575.96 378.671 1575.34 378.671Z" fill="white" stroke="white" stroke-width="0.5"/>
<path d="M1575.34 426.773H1563.47C1562.97 426.773 1562.47 426.399 1562.47 425.774C1562.47 425.15 1562.84 424.775 1563.47 424.775H1575.34C1575.84 424.775 1576.34 425.15 1576.34 425.774C1576.34 426.399 1575.96 426.773 1575.34 426.773Z" fill="white" stroke="white" stroke-width="0.5"/>
<path fill-rule="evenodd" clip-rule="evenodd" d="M1558.97 357.184H1535.73C1520.36 357.184 1507.87 377.173 1507.87 401.661C1507.87 426.15 1520.36 446.139 1535.73 446.139H1558.97C1574.34 445.639 1586.33 426.149 1586.33 401.661C1586.33 377.172 1574.34 357.684 1558.97 357.184ZM1557.09 430.021C1561.09 422.275 1563.59 412.405 1563.59 401.535C1563.59 390.79 1561.22 380.919 1557.22 373.173L1556.81 372.394L1556.51 371.867L1556.22 371.425C1552.85 365.679 1548.6 361.431 1543.85 359.056H1558.97C1565.84 359.306 1572.09 363.929 1576.71 371.425L1577.06 371.942L1577.36 372.318L1577.83 373.048C1581.96 380.669 1584.58 390.664 1584.58 401.534C1584.46 412.529 1581.83 422.525 1577.71 430.021L1577.71 430.021L1577.44 430.523L1577.06 431.201L1576.58 431.894C1572.09 439.265 1565.84 443.887 1558.97 444.138H1543.73C1548.6 441.765 1552.85 437.391 1556.22 431.644C1556.21 431.652 1556.43 431.201 1556.43 431.201L1556.84 430.448L1557.09 430.021ZM1547.1 439.891C1538.23 432.77 1532.36 417.778 1532.36 401.66C1532.36 385.418 1538.1 370.552 1547.1 363.429C1555.72 370.301 1561.72 384.918 1561.72 401.66C1561.72 418.402 1555.72 433.02 1547.1 439.891ZM1509.74 401.66C1509.74 378.172 1521.36 359.056 1535.73 359.056C1539.23 359.056 1542.48 360.181 1545.47 362.18C1536.35 369.801 1530.48 385.044 1530.48 401.535C1530.48 418.026 1536.35 433.394 1545.47 440.89C1542.47 442.889 1539.1 444.013 1535.73 444.013C1521.36 444.139 1509.74 425.148 1509.74 401.66Z" fill="white" stroke="white" stroke-width="0.5"/>
<circle cx="1189" cy="198" r="67.7059" stroke="white" stroke-width="2.58827"/>
<path d="M1229.89 190.177C1228.85 186.59 1225.93 183.947 1221.4 182.437C1218.09 181.398 1214.88 181.304 1214.03 181.304H1211.2C1209.69 181.304 1208.18 181.304 1206.58 181.398L1172.22 181.399C1170.71 181.399 1169.1 181.305 1167.59 181.305H1164.76C1163.91 181.305 1160.7 181.399 1157.4 182.437C1152.96 183.853 1150.03 186.496 1148.9 190.178C1148.81 190.367 1148.43 191.122 1146.73 191.311V196.219C1146.73 196.219 1147.58 196.313 1148.15 196.974C1148.05 200.089 1148.34 204.053 1149.56 208.018C1150.51 211.133 1153.53 214.814 1162.31 214.814C1165.89 214.814 1169.01 214.153 1169.38 214.059C1170.23 213.87 1178.35 212.076 1184.02 199.428V199.522L1187.04 193.764C1187.04 193.764 1186.85 193.292 1186.28 192.725C1186.28 192.442 1186.38 192.159 1186.38 191.876C1186.56 191.593 1187.32 191.215 1189.4 191.215C1191.57 191.215 1192.23 191.592 1192.42 191.876C1192.42 192.159 1192.51 192.442 1192.51 192.725C1191.85 193.292 1191.76 193.764 1191.76 193.764L1194.78 199.522V199.333C1200.35 212.171 1208.56 213.965 1209.41 214.154C1209.79 214.248 1212.9 214.909 1216.49 214.909C1225.27 214.909 1228.29 211.228 1229.23 208.113C1230.46 204.148 1230.74 200.184 1230.65 197.069C1231.21 196.502 1232.06 196.313 1232.06 196.313V191.31C1230.36 191.121 1229.99 190.272 1229.89 190.177L1229.89 190.177H1229.89ZM1183.45 190.838C1183.45 192.726 1182.98 194.143 1182.98 194.143C1181.47 198.578 1178.73 204.714 1174.01 208.49C1171.18 210.756 1169.01 211.133 1169.01 211.133H1168.91C1168.91 211.133 1165.89 211.794 1162.4 211.794C1159.85 211.794 1157.77 211.417 1156.17 210.756C1154.28 210 1153.05 208.773 1152.49 207.074C1150.03 199.24 1151.73 191.405 1151.83 190.933C1153.71 184.419 1163.63 184.23 1164.76 184.23H1172.03C1177.31 184.324 1179.2 184.702 1179.67 184.797C1183.07 188.101 1183.26 190.082 1183.35 190.461L1183.45 190.838H1183.45ZM1189.4 188.762C1189.11 188.762 1187.23 188.668 1186.19 189.139C1185.81 188.007 1185.05 186.402 1183.36 184.325H1195.53C1193.83 186.308 1192.98 187.912 1192.7 189.139C1191.57 188.668 1189.77 188.762 1189.4 188.762H1189.4ZM1226.4 207.169C1225.83 208.867 1224.7 210.095 1222.72 210.85C1221.11 211.511 1218.94 211.888 1216.49 211.888C1212.99 211.888 1209.97 211.227 1209.97 211.227H1209.88C1209.88 211.227 1207.61 210.85 1204.88 208.584C1200.16 204.714 1197.33 198.673 1195.91 194.236C1195.91 194.236 1195.44 192.821 1195.44 190.932V190.743C1195.44 190.46 1195.63 188.383 1199.12 185.079C1199.59 184.985 1201.48 184.607 1206.76 184.513H1210.92V184.419H1214.03C1215.17 184.419 1225.08 184.608 1226.96 191.121C1227.15 191.499 1228.85 199.334 1226.4 207.168L1226.4 207.169V207.169Z" fill="white"/>
<path d="M1154.65 190.603H1144.41V196.296H1154.65V190.603Z" fill="white"/>
<circle cx="491" cy="242" r="67.8609" stroke="white" stroke-width="2.27829"/>
<path d="M509.856 244.916C512.995 245.858 515.819 247.427 517.703 249.938C523.038 255.901 522.724 265.003 517.703 270.965C514.564 274.418 510.17 276.615 505.463 276.615H457.758C453.678 276.615 449.598 274.732 446.773 272.221C441.123 266.885 440.182 258.411 444.262 252.134C445.203 249.937 447.086 248.368 448.97 246.798C447.714 241.463 448.342 235.813 451.167 230.791C456.502 220.748 468.742 216.667 479.414 221.061C485.377 223.572 490.085 228.594 491.968 235.185C493.851 234.243 495.734 233.929 497.617 233.929C501.383 233.929 504.836 235.812 507.347 238.637C508.602 240.52 509.544 242.403 509.858 244.914L509.856 244.916ZM514.564 252.763C512.053 249.624 509.229 248.997 505.463 248.369C505.777 245.544 505.777 243.347 503.58 240.836C502.01 238.953 499.814 238.012 497.617 238.012C493.851 238.012 491.654 240.523 489.143 242.72C487.887 234.56 486.004 228.282 477.216 224.83C469.056 221.378 459.64 224.83 455.247 232.363C451.794 238.012 452.108 243.034 453.991 248.996C451.48 250.252 449.283 251.507 447.714 254.332C444.89 259.04 445.517 265.317 449.597 269.083C451.794 270.966 454.619 272.222 457.757 272.222H505.462C508.914 272.222 512.053 270.966 514.563 268.142C518.329 263.748 518.329 257.157 514.563 252.764L514.564 252.763Z" fill="white"/>
<path d="M524.922 258.412L531.199 264.689L528.061 267.513L522.098 261.55C523.039 260.609 523.981 259.353 524.922 258.412Z" fill="white"/>
<path d="M531.512 238.012H540.3V242.406H531.512C531.826 240.837 531.826 239.582 531.512 238.012Z" fill="white"/>
<path d="M522.098 219.181L528.375 212.904L531.513 216.042L525.236 222.319C524.295 221.064 523.039 220.122 522.098 219.181Z" fill="white"/>
<path d="M501.703 212.589V203.801H506.097V212.589C504.528 212.275 503.273 212.275 501.703 212.589Z" fill="white"/>
<path d="M482.863 222.005L476.586 216.042L479.41 212.904L485.687 219.181C484.746 220.122 483.49 221.064 482.863 222.005Z" fill="white"/>
<path fill-rule="evenodd" clip-rule="evenodd" d="M503.898 216.983C516.766 216.983 527.123 227.34 527.123 240.208C527.123 246.799 524.612 252.448 520.532 256.528C520.218 255.272 519.591 254.017 518.649 252.762C521.473 249.31 523.357 244.915 523.357 240.208C523.357 229.537 514.569 220.75 503.899 220.75C497.308 220.75 491.659 223.889 488.207 228.91C487.266 227.655 486.324 226.713 485.383 225.772C489.777 220.436 496.368 216.983 503.9 216.983L503.898 216.983Z" fill="white"/>
<circle cx="1665" cy="199" r="67.7059" stroke="white" stroke-width="2.58827"/>
<path d="M1708 220.29H1700.59C1701.57 219.022 1702.1 217.466 1702.1 215.866V174.568C1702.1 172.613 1701.32 170.739 1699.94 169.356C1698.56 167.974 1696.68 167.197 1694.73 167.194H1635.73C1633.78 167.196 1631.9 167.974 1630.52 169.356C1629.14 170.739 1628.36 172.613 1628.36 174.568V215.866C1628.36 217.466 1628.9 219.022 1629.87 220.29H1622.46C1621.64 220.29 1620.98 220.951 1620.98 221.765C1620.99 224.111 1621.92 226.361 1623.58 228.02C1625.24 229.679 1627.49 230.612 1629.83 230.615H1700.63C1702.98 230.612 1705.23 229.679 1706.88 228.02C1708.54 226.361 1709.48 224.111 1709.48 221.765C1709.48 221.374 1709.32 220.999 1709.05 220.722C1708.77 220.446 1708.39 220.29 1708 220.29H1708ZM1631.31 174.568C1631.31 173.395 1631.77 172.269 1632.6 171.44C1633.43 170.61 1634.56 170.144 1635.73 170.144H1694.73C1695.9 170.144 1697.03 170.61 1697.86 171.44C1698.69 172.269 1699.15 173.395 1699.15 174.568V215.866C1699.15 217.039 1698.69 218.165 1697.86 218.994C1697.03 219.824 1695.9 220.29 1694.73 220.29H1635.73C1634.56 220.29 1633.43 219.824 1632.6 218.994C1631.78 218.165 1631.31 217.039 1631.31 215.866L1631.31 174.568H1631.31ZM1700.63 227.665H1629.83C1628.53 227.664 1627.26 227.228 1626.22 226.428C1625.19 225.627 1624.45 224.506 1624.12 223.24H1706.34C1706.01 224.506 1705.27 225.627 1704.24 226.428C1703.21 227.228 1701.94 227.664 1700.63 227.665H1700.63Z" fill="white"/>
<path d="M1660.81 174.568H1665.24C1666.05 174.568 1666.71 173.908 1666.71 173.094C1666.71 172.279 1666.05 171.619 1665.24 171.619H1660.81C1660 171.619 1659.34 172.279 1659.34 173.094C1659.34 173.908 1660 174.568 1660.81 174.568Z" fill="white"/>
<path d="M1671.13 173.094C1671.13 173.908 1670.47 174.568 1669.65 174.568C1668.84 174.568 1668.18 173.908 1668.18 173.094C1668.18 172.279 1668.84 171.619 1669.65 171.619C1670.47 171.619 1671.13 172.279 1671.13 173.094Z" fill="white"/>
<circle cx="1306" cy="401" r="67.7059" stroke="white" stroke-width="2.58827"/>
<path d="M1329.7 408.401H1282.18C1271.69 408.401 1263.15 399.868 1263.15 389.379C1263.15 378.89 1271.69 370.356 1282.18 370.356H1329.7C1340.19 370.356 1348.73 378.89 1348.73 389.379C1348.73 399.868 1340.19 408.401 1329.7 408.401ZM1282.18 373.557C1273.45 373.557 1266.35 380.655 1266.35 389.379C1266.35 398.103 1273.45 405.2 1282.18 405.2H1329.7C1338.43 405.2 1345.52 398.103 1345.52 389.379C1345.52 380.655 1338.43 373.557 1329.7 373.557H1282.18Z" fill="white"/>
<path d="M1325.25 431.388H1285.03V429.871C1285.03 424.518 1289.39 420.163 1294.74 420.163H1315.54C1320.89 420.163 1325.25 424.518 1325.25 429.871V431.388ZM1288.24 428.354H1322.04C1321.35 425.402 1318.7 423.197 1315.54 423.197H1294.74C1291.58 423.197 1288.93 425.402 1288.24 428.354Z" fill="white"/>
<path d="M1305.13 402.197C1298.07 402.197 1292.32 396.447 1292.32 389.379C1292.32 382.311 1298.07 376.561 1305.13 376.561C1312.2 376.561 1317.95 382.311 1317.95 389.379C1317.95 396.447 1312.2 402.197 1305.13 402.197ZM1305.13 379.595C1299.74 379.595 1295.35 383.984 1295.35 389.379C1295.35 394.774 1299.74 399.162 1305.13 399.162C1310.53 399.162 1314.92 394.774 1314.92 389.379C1314.92 383.984 1310.53 379.595 1305.13 379.595Z" fill="white"/>
<path d="M1305.14 395.543C1301.74 395.543 1298.98 392.778 1298.98 389.378C1298.98 385.979 1301.74 383.213 1305.14 383.213C1308.54 383.213 1311.31 385.979 1311.31 389.378C1311.31 392.778 1308.54 395.543 1305.14 395.543ZM1305.14 386.247C1303.42 386.247 1302.01 387.652 1302.01 389.378C1302.01 391.105 1303.42 392.509 1305.14 392.509C1306.87 392.509 1308.27 391.105 1308.27 389.378C1308.27 387.652 1306.87 386.247 1305.14 386.247Z" fill="white"/>
<path d="M1312.36 423.197H1297.45V405.222H1312.36V423.197ZM1300.48 420.163H1309.33V408.256H1300.48V420.163Z" fill="white"/>
<circle cx="731" cy="194" r="67.7059" stroke="white" stroke-width="2.58827"/>
<path d="M740.849 174.526V150.928C740.849 149.754 740.383 148.628 739.553 147.799C738.723 146.969 737.597 146.503 736.424 146.503H727.575C726.401 146.503 725.275 146.969 724.446 147.799C723.617 148.628 723.15 149.754 723.15 150.928V174.526C721.447 174.529 719.796 175.121 718.479 176.202C717.162 177.282 716.259 178.785 715.923 180.455C715.874 180.442 715.826 180.432 715.776 180.426C714.961 180.426 714.301 181.086 714.301 181.9V184.85C714.301 185.241 714.456 185.617 714.733 185.893C715.009 186.17 715.385 186.325 715.776 186.325V187.8C714.961 187.8 714.301 188.46 714.301 189.275V192.225C714.301 192.616 714.456 192.991 714.733 193.268C715.009 193.544 715.385 193.7 715.776 193.7V199.599C715.778 201.554 716.556 203.429 717.938 204.812C719.321 206.194 721.195 206.971 723.15 206.974V230.572C723.15 231.746 723.616 232.872 724.446 233.701C725.276 234.531 726.402 234.997 727.575 234.997H736.424C737.598 234.997 738.724 234.531 739.553 233.701C740.383 232.871 740.849 231.745 740.849 230.572V206.974C742.804 206.971 744.678 206.194 746.061 204.812C747.443 203.429 748.221 201.554 748.223 199.599V181.9C748.221 179.945 747.443 178.071 746.061 176.688C744.678 175.306 742.804 174.529 740.849 174.526V174.526ZM726.1 150.928C726.1 150.113 726.76 149.453 727.575 149.453H736.424C736.815 149.453 737.191 149.608 737.467 149.885C737.744 150.161 737.899 150.536 737.899 150.928V174.526H726.1V150.928ZM737.899 230.572C737.899 230.963 737.744 231.339 737.467 231.615C737.191 231.892 736.815 232.047 736.424 232.047H727.575C726.76 232.047 726.1 231.387 726.1 230.572V206.974H737.899V230.572ZM745.274 199.599C745.274 200.773 744.807 201.899 743.978 202.728C743.148 203.558 742.022 204.024 740.849 204.024H723.15C721.977 204.024 720.851 203.558 720.021 202.728C719.192 201.899 718.725 200.773 718.725 199.599V181.901C718.725 180.727 719.192 179.601 720.021 178.772C720.851 177.942 721.977 177.476 723.15 177.476H740.849C742.022 177.476 743.148 177.942 743.978 178.772C744.807 179.601 745.274 180.727 745.274 181.901V199.599Z" fill="white"/>
<circle cx="256" cy="199" r="67.8609" stroke="white" stroke-width="2.27829"/>
<rect x="222.705" y="171.706" width="54.0245" height="54.0245" rx="3.23306" stroke="white" stroke-width="3.87968" stroke-linejoin="round"/>
<path d="M292.834 215.351L277.434 206.111V191.943L292.834 182.703V215.351Z" stroke="white" stroke-width="3.87968" stroke-linejoin="round"/>
<mask id="path-60-inside-1_1059_32" fill="white">
<rect x="229.387" y="179.622" width="9.85604" height="3.69601" rx="1.29323"/>
</mask>
<rect x="229.387" y="179.622" width="9.85604" height="3.69601" rx="1.29323" stroke="white" stroke-width="3.69601" stroke-linejoin="round" mask="url(#path-60-inside-1_1059_32)"/>
<circle cx="370" cy="400" r="67.8609" stroke="white" stroke-width="2.27829"/>
<path d="M327.734 391.924C353.081 363.759 386.876 363.759 412.223 391.924M344.632 408.821C359.84 391.924 380.117 391.924 395.325 408.821" stroke="white" stroke-width="5.01703" stroke-linecap="round" stroke-linejoin="round"/>
<path d="M369.978 429.943C372.311 429.943 374.203 428.052 374.203 425.719C374.203 423.386 372.311 421.495 369.978 421.495C367.645 421.495 365.754 423.386 365.754 425.719C365.754 428.052 367.645 429.943 369.978 429.943Z" stroke="white" stroke-width="5.01703" stroke-linecap="round" stroke-linejoin="round"/>
<circle cx="733" cy="572" r="67.7059" stroke="white" stroke-width="2.58827"/>
<path d="M682.133 575.582V594.936C682.133 595.71 682.742 596.318 683.515 596.318H687.663V603.231C687.663 604.004 688.271 604.613 689.045 604.613H700.104C700.878 604.613 701.486 604.004 701.486 603.231V596.318H765.076V603.231C765.076 604.004 765.684 604.613 766.458 604.613H777.518C778.291 604.613 778.9 604.004 778.9 603.231L778.901 596.318H783.048C783.822 596.318 784.43 595.71 784.43 594.936V575.582C784.43 570.246 780.089 565.906 774.753 565.906H773.371V545.17C773.371 541.354 770.275 538.257 766.459 538.257H700.104C696.288 538.257 693.191 541.354 693.191 545.17V565.906H691.809C686.473 565.906 682.133 570.246 682.133 575.582H682.133ZM698.722 601.847H690.428V596.318H698.722V601.847ZM776.135 601.847H767.841V596.318H776.135V601.847ZM781.665 593.553H684.896V585.258H781.663L781.665 593.553ZM695.956 545.17C695.956 542.875 697.808 541.023 700.103 541.023H766.458C768.753 541.023 770.605 542.875 770.605 545.17V565.906H765.076V558.994C765.076 556.699 763.224 554.847 760.929 554.847H744.34C742.045 554.847 740.193 556.699 740.193 558.994V565.906H726.369V558.994C726.369 556.699 724.517 554.847 722.222 554.847H705.633C703.338 554.847 701.486 556.699 701.486 558.994L701.485 565.906H695.956L695.956 545.17ZM762.311 558.994V565.906H742.957V558.994C742.957 558.22 743.565 557.612 744.339 557.612H760.928C761.703 557.612 762.311 558.22 762.311 558.994H762.311ZM723.604 558.994V565.906H704.25V558.994C704.25 558.22 704.859 557.612 705.633 557.612H722.221C722.996 557.612 723.604 558.22 723.604 558.994H723.604ZM691.808 568.67H774.752C778.568 568.67 781.665 571.767 781.665 575.583V582.495H684.897V575.583C684.897 571.767 687.993 568.67 691.809 568.67H691.808Z" fill="white"/>
<line x1="1664.29" y1="266" x2="1664.3" y2="678" stroke="white" stroke-width="2.59"/>
<line x1="732.295" y1="263" x2="732.295" y2="316" stroke="white" stroke-width="2.59"/>
<line x1="251.295" y1="266" x2="251.295" y2="678" stroke="white" stroke-width="2.59"/>
<line x1="961.295" y1="461" x2="961.295" y2="1259" stroke="white" stroke-width="2.59"/>
<line x1="997.295" y1="630" x2="997.295" y2="1294" stroke="white" stroke-width="2.59"/>
<line x1="1033.29" y1="857" x2="1033.3" y2="1308" stroke="white" stroke-width="2.59"/>
<line x1="1069.29" y1="896" x2="1069.3" y2="1259" stroke="white" stroke-width="2.59"/>
<line x1="1105.29" y1="935" x2="1105.3" y2="1259" stroke="white" stroke-width="2.59"/>
<line x1="1141.29" y1="974" x2="1141.3" y2="1259" stroke="white" stroke-width="2.59"/>
<line x1="1175.29" y1="1013" x2="1175.3" y2="1255" stroke="white" stroke-width="2.59"/>
<line x1="924.295" y1="572" x2="924.295" y2="1259" stroke="white" stroke-width="2.59"/>
<line x1="886.295" y1="819" x2="886.295" y2="1300" stroke="white" stroke-width="2.59"/>
<line x1="851.295" y1="858" x2="851.295" y2="1259" stroke="white" stroke-width="2.59"/>
<line x1="815.295" y1="897" x2="815.295" y2="1266" stroke="white" stroke-width="2.59"/>
<line x1="777.295" y1="936" x2="777.295" y2="1270" stroke="white" stroke-width="2.59"/>
<line x1="742.295" y1="975" x2="742.295" y2="1251" stroke="white" stroke-width="2.59"/>
<line x1="1189.29" y1="264" x2="1189.3" y2="372" stroke="white" stroke-width="2.59"/>
<line x1="1188.98" y1="676.845" x2="1032.98" y2="857.845" stroke="white" stroke-width="2.59"/>
<line x1="733.884" y1="677.054" x2="886.884" y2="820.054" stroke="white" stroke-width="2.59"/>
<line x1="1306.88" y1="676.951" x2="1068.88" y2="896.951" stroke="white" stroke-width="2.59"/>
<line x1="611.782" y1="676.968" x2="851.783" y2="858.968" stroke="white" stroke-width="2.59"/>
<line x1="491.73" y1="676.93" x2="815.73" y2="897.93" stroke="white" stroke-width="2.59"/>
<line x1="370.697" y1="676.909" x2="777.697" y2="936.909" stroke="white" stroke-width="2.59"/>
<line x1="250.673" y1="676.893" x2="742.673" y2="975.893" stroke="white" stroke-width="2.59"/>
<line x1="1429.81" y1="677.013" x2="1104.81" y2="936.013" stroke="white" stroke-width="2.59"/>
<line x1="1548.76" y1="677.046" x2="1140.76" y2="975.046" stroke="white" stroke-width="2.59"/>
<line x1="1664.73" y1="677.067" x2="1174.73" y2="1014.07" stroke="white" stroke-width="2.59"/>
<line x1="1190.04" y1="370.772" x2="997.04" y2="630.772" stroke="white" stroke-width="2.59"/>
<line x1="732.039" y1="315.227" x2="924.039" y2="573.227" stroke="white" stroke-width="2.59"/>
<line x1="1429.29" y1="308" x2="1429.3" y2="678" stroke="white" stroke-width="2.59"/>
<line x1="492.295" y1="309" x2="492.295" y2="678" stroke="white" stroke-width="2.59"/>
<line x1="1306.29" y1="469" x2="1306.3" y2="678" stroke="white" stroke-width="2.59"/>
<line x1="612.295" y1="471" x2="612.295" y2="678" stroke="white" stroke-width="2.59"/>
<line x1="1548.29" y1="470" x2="1548.3" y2="678" stroke="white" stroke-width="2.59"/>
<line x1="371.295" y1="467" x2="371.295" y2="678" stroke="white" stroke-width="2.59"/>
<line x1="1188.29" y1="640" x2="1188.3" y2="678" stroke="white" stroke-width="2.59"/>
<line x1="734.295" y1="641" x2="734.295" y2="678" stroke="white" stroke-width="2.59"/>
<line x1="1175.29" y1="1220" x2="1175.3" y2="1329" stroke="white" stroke-width="2.59"/>
<line x1="1085.29" y1="1502" x2="1085.3" y2="1816" stroke="white" stroke-width="2.59"/>
<line x1="1141.29" y1="1220" x2="1141.3" y2="1329" stroke="white" stroke-width="2.59"/>
<line x1="1064.29" y1="1502" x2="1064.3" y2="1816" stroke="white" stroke-width="2.59"/>
<line x1="1105.29" y1="1220" x2="1105.3" y2="1329" stroke="white" stroke-width="2.59"/>
<line x1="1043.29" y1="1502" x2="1043.3" y2="1816" stroke="white" stroke-width="2.59"/>
<line x1="851.295" y1="1220" x2="851.295" y2="1329" stroke="white" stroke-width="2.59"/>
<line x1="896.295" y1="1502" x2="896.295" y2="1816" stroke="white" stroke-width="2.59"/>
<line x1="917.295" y1="1502" x2="917.295" y2="1816" stroke="white" stroke-width="2.59"/>
<line x1="938.295" y1="1502" x2="938.295" y2="1816" stroke="white" stroke-width="2.59"/>
<line x1="815.295" y1="1220" x2="815.295" y2="1329" stroke="white" stroke-width="2.59"/>
<line x1="875.295" y1="1502" x2="875.295" y2="1816" stroke="white" stroke-width="2.59"/>
<line x1="777.295" y1="1220" x2="777.295" y2="1329" stroke="white" stroke-width="2.59"/>
<line x1="854.295" y1="1502" x2="854.295" y2="1816" stroke="white" stroke-width="2.59"/>
<line x1="742.295" y1="1220" x2="742.295" y2="1329" stroke="white" stroke-width="2.59"/>
<line x1="833.295" y1="1502" x2="833.295" y2="1816" stroke="white" stroke-width="2.59"/>
<line x1="1069.29" y1="1220" x2="1069.3" y2="1329" stroke="white" stroke-width="2.59"/>
<line x1="1022.29" y1="1502" x2="1022.29" y2="1816" stroke="white" stroke-width="2.59"/>
<line x1="1001.29" y1="1502" x2="1001.29" y2="1816" stroke="white" stroke-width="2.59"/>
<line x1="980.295" y1="1502" x2="980.295" y2="1816" stroke="white" stroke-width="2.59"/>
<line x1="959.295" y1="1502" x2="959.295" y2="1816" stroke="white" stroke-width="2.59"/>
<line x1="1175.86" y1="1327.97" x2="1041.86" y2="1445.97" stroke="white" stroke-width="2.59"/>
<line x1="741.837" y1="1328.01" x2="878.837" y2="1444.01" stroke="white" stroke-width="2.59"/>
<line x1="776.837" y1="1328.01" x2="913.837" y2="1444.01" stroke="white" stroke-width="2.59"/>
<line x1="814.844" y1="1328.02" x2="949.844" y2="1444.02" stroke="white" stroke-width="2.59"/>
<line x1="1141.86" y1="1327.97" x2="1007.86" y2="1445.97" stroke="white" stroke-width="2.59"/>
<line x1="1105.86" y1="1327.97" x2="971.856" y2="1445.97" stroke="white" stroke-width="2.59"/>
<circle cx="959.5" cy="1413" r="155.015" fill="black" stroke="#ED1E40" stroke-width="5.97027"/>
<path d="M1009.24 1410.21L1000.29 1405.04V1340.91C1000.29 1318.1 981.737 1299.55 958.929 1299.55C936.121 1299.55 917.565 1318.1 917.565 1340.91V1405.04L908.622 1410.21C900.938 1414.65 896.164 1422.91 896.164 1431.79V1475.49C896.164 1484.36 900.937 1492.63 908.622 1497.07L946.473 1518.92C950.255 1521.11 954.564 1522.26 958.931 1522.26C963.298 1522.26 967.607 1521.11 971.388 1518.92L1009.24 1497.07C1016.92 1492.64 1021.7 1484.37 1021.7 1475.49V1431.79C1021.7 1422.91 1016.93 1414.65 1009.24 1410.21L1009.24 1410.21ZM927.462 1340.9C927.462 1323.56 941.579 1309.44 958.929 1309.44C976.279 1309.44 990.393 1323.55 990.393 1340.9V1399.32L971.388 1388.35C963.822 1383.98 954.036 1383.98 946.474 1388.35L927.463 1399.32L927.462 1340.9ZM1011.8 1475.49C1011.8 1480.84 1008.92 1485.82 1004.29 1488.5L966.439 1510.35C961.88 1512.98 955.978 1512.98 951.423 1510.35L913.571 1488.5C908.939 1485.82 906.063 1480.84 906.063 1475.49L906.064 1431.79C906.064 1426.44 908.942 1421.46 913.573 1418.78L951.425 1396.93C953.703 1395.61 956.303 1394.91 958.933 1394.91C961.564 1394.91 964.162 1395.61 966.442 1396.93L1004.29 1418.78C1008.92 1421.46 1011.8 1426.44 1011.8 1431.79L1011.8 1475.49Z" fill="white"/>
<path d="M958.928 1431.39C951.205 1431.39 944.922 1437.67 944.922 1445.4C944.922 1451.38 948.695 1456.48 953.979 1458.48V1470.94C953.979 1473.68 956.197 1475.89 958.928 1475.89C961.66 1475.89 963.877 1473.67 963.877 1470.94V1458.48C969.162 1456.48 972.934 1451.38 972.934 1445.4C972.934 1437.67 966.651 1431.39 958.928 1431.39ZM958.928 1441.29C961.193 1441.29 963.036 1443.13 963.036 1445.4C963.036 1447.66 961.193 1449.51 958.928 1449.51C956.663 1449.51 954.82 1447.66 954.82 1445.4C954.82 1443.13 956.663 1441.29 958.928 1441.29Z" fill="white"/>
<path d="M1197.89 1927.46C1197.69 1936.78 1195.8 1945.64 1192.66 1953.87L1192.66 1953.87C1212.66 1968.52 1225.48 1992.32 1224.93 2018.98C1224.29 2049.37 1206.47 2075.33 1180.96 2087.89C1175.57 2104.85 1164.6 2119.24 1150.22 2129.03C1148.79 2171.98 1113.12 2205.91 1070.03 2205.01C1068.55 2204.98 1048.66 2219.35 1043.6 2236.63C1030.18 2238.12 980.566 2235.31 980.566 2235.31C978.528 2200.44 978.243 2191.71 973.854 2188.37C969.603 2185.14 961.501 2186.97 944.227 2175.02C909.153 2170.47 868.739 2156.31 863.805 2121.63C859.38 2122.3 854.869 2122.69 850.247 2122.59C831.406 2122.2 815.884 2099.13 813.827 2090.45C807.003 2092.72 799.712 2093.94 792.106 2093.78C761.531 2093.15 736.405 2071.39 730.23 2042.73C702.978 2029.91 684.349 2001.99 685.017 1969.94C685.52 1945.83 696.846 1924.51 714.23 1910.44C714.228 1910.21 714.225 1909.98 714.221 1909.74C714.213 1909.17 714.204 1908.59 714.216 1908.01C715.258 1858.07 755.219 1818.09 804.541 1816.4C820.539 1786.01 852.709 1765.57 889.383 1766.33C903.581 1766.63 916.961 1770.09 928.901 1775.99C944.645 1764.93 963.919 1758.59 984.637 1759.02C1017.56 1759.71 1046.14 1777.33 1062.29 1803.39C1068.44 1801.98 1074.84 1801.21 1081.43 1801.35C1115.75 1802.07 1144.4 1824.7 1154.49 1855.59C1180.74 1868.78 1198.54 1896.13 1197.89 1927.46Z" fill="#ED1E40"/>
<path d="M979.288 2070.63H978.462H952.725H951.9L951.743 2069.82C950.229 2061.97 943.23 2056 934.826 2056C925.313 2056 917.594 2063.64 917.594 2073L979.288 2070.63ZM979.288 2070.63L979.444 2069.82M979.288 2070.63L979.444 2069.82M979.444 2069.82C980.959 2061.97 987.957 2056 996.362 2056C1005.87 2056 1013.59 2063.64 1013.59 2073C1013.59 2082.36 1005.88 2090 996.362 2090C987.957 2090 980.958 2084.03 979.442 2076.19L979.286 2075.38H978.46H952.729H951.904M979.444 2069.82L951.904 2075.38M951.904 2075.38L951.747 2076.19M951.904 2075.38L951.747 2076.19M951.747 2076.19C950.231 2084.03 943.23 2090 934.828 2090C925.315 2090 917.596 2082.36 917.594 2073L951.747 2076.19ZM922.434 2073C922.434 2079.77 928.005 2085.25 934.828 2085.25C941.651 2085.25 947.224 2079.77 947.224 2073C947.224 2066.23 941.651 2060.75 934.828 2060.75C928.007 2060.75 922.434 2066.23 922.434 2073ZM983.966 2073C983.966 2079.77 989.539 2085.25 996.362 2085.25C1003.18 2085.25 1008.76 2079.77 1008.76 2073C1008.76 2066.23 1003.18 2060.75 996.362 2060.75C989.539 2060.75 983.966 2066.23 983.966 2073Z" fill="white" stroke="#ED1E40" stroke-width="2"/>
<path d="M979.288 1838.63H978.462H952.725H951.9L951.743 1837.82C950.229 1829.97 943.23 1824 934.826 1824C925.313 1824 917.594 1831.64 917.594 1841L979.288 1838.63ZM979.288 1838.63L979.444 1837.82M979.288 1838.63L979.444 1837.82M979.444 1837.82C980.959 1829.97 987.957 1824 996.362 1824C1005.87 1824 1013.59 1831.64 1013.59 1841C1013.59 1850.36 1005.88 1858 996.362 1858C987.957 1858 980.958 1852.03 979.442 1844.19L979.286 1843.38H978.46H952.729H951.904M979.444 1837.82L951.904 1843.38M951.904 1843.38L951.747 1844.19M951.904 1843.38L951.747 1844.19M951.747 1844.19C950.231 1852.03 943.23 1858 934.828 1858C925.315 1858 917.596 1850.36 917.594 1841L951.747 1844.19ZM922.434 1841C922.434 1847.77 928.005 1853.25 934.828 1853.25C941.651 1853.25 947.224 1847.77 947.224 1841C947.224 1834.23 941.651 1828.75 934.828 1828.75C928.007 1828.75 922.434 1834.23 922.434 1841ZM983.966 1841C983.966 1847.77 989.539 1853.25 996.362 1853.25C1003.18 1853.25 1008.76 1847.77 1008.76 1841C1008.76 1834.23 1003.18 1828.75 996.362 1828.75C989.539 1828.75 983.966 1834.23 983.966 1841Z" fill="white" stroke="#ED1E40" stroke-width="2"/>
<mask id="path-136-inside-2_1059_32" fill="white">
<path fill-rule="evenodd" clip-rule="evenodd" d="M1077.02 1935.43C1067.86 1935.43 1060.22 1942.02 1058.57 1950.69L1038.75 1950.7V1924.11H1063.99L1073.26 1914.85H1095.33C1096.92 1923.61 1104.59 1930.28 1113.8 1930.28C1124.16 1930.28 1132.59 1921.85 1132.59 1911.5C1132.59 1901.13 1124.16 1892.71 1113.8 1892.71C1104.71 1892.71 1097.11 1899.21 1095.39 1907.8H1070.35L1061.08 1917.07H1038.76V1892.15H1058.56L1085.02 1864.56C1088.22 1867.06 1092.22 1868.57 1096.59 1868.57C1106.95 1868.57 1115.37 1860.14 1115.37 1849.79C1115.37 1839.43 1106.95 1831 1096.59 1831C1086.23 1831 1077.8 1839.43 1077.8 1849.79C1077.8 1853.23 1078.75 1856.45 1080.38 1859.23L1055.56 1885.11H1038.45C1036.97 1877.51 1030.28 1871.78 1022.26 1871.78H907.946C899.913 1871.78 893.234 1877.51 891.747 1885.11H874.637L849.822 1859.23C851.449 1856.45 852.395 1853.23 852.395 1849.79C852.395 1839.43 843.965 1831 833.606 1831C823.247 1831 814.821 1839.43 814.821 1849.79C814.821 1860.15 823.248 1868.57 833.606 1868.57C837.97 1868.57 841.981 1867.06 845.173 1864.56L871.635 1892.15H891.438V1917.07H869.118L859.845 1907.8H834.805C833.085 1899.21 825.48 1892.71 816.386 1892.71C806.024 1892.71 797.597 1901.14 797.597 1911.5C797.597 1921.85 806.028 1930.28 816.386 1930.28C825.6 1930.28 833.27 1923.61 834.856 1914.85H856.929L866.198 1924.11H891.434L891.427 1950.7H871.614C869.96 1942.02 862.327 1935.43 853.171 1935.43C842.812 1935.43 834.382 1943.86 834.382 1954.22C834.382 1964.58 842.813 1973.01 853.171 1973.01C862.327 1973.01 869.963 1966.42 871.614 1957.74H891.43V1983.88H866.195L856.926 1993.15H834.852C833.267 1984.39 825.597 1977.72 816.383 1977.72C806.02 1977.72 797.594 1986.15 797.594 1996.5C797.594 2006.86 806.024 2015.29 816.383 2015.29C825.477 2015.29 833.082 2008.79 834.801 2000.2H859.842L869.114 1990.93H891.435V2015.85H871.632L845.17 2043.44C841.978 2040.94 837.967 2039.43 833.603 2039.43C823.244 2039.43 814.817 2047.86 814.817 2058.21C814.817 2068.57 823.244 2077 833.603 2077C843.961 2077 852.392 2068.57 852.392 2058.21C852.392 2054.77 851.443 2051.55 849.819 2048.77L874.633 2022.9H891.744C893.231 2030.49 899.91 2036.23 907.943 2036.23L1022.27 2036.22C1030.29 2036.22 1036.97 2030.49 1038.46 2022.89H1055.57L1080.38 2048.77C1078.76 2051.55 1077.81 2054.77 1077.81 2058.21C1077.81 2068.57 1086.24 2077 1096.6 2077C1106.95 2077 1115.38 2068.57 1115.38 2058.21C1115.38 2047.85 1106.95 2039.43 1096.6 2039.43C1092.23 2039.43 1088.22 2040.94 1085.02 2043.44L1058.57 2015.85H1038.76V1990.93H1061.08L1070.35 2000.2H1095.39C1097.11 2008.79 1104.72 2015.29 1113.81 2015.29C1124.17 2015.29 1132.59 2006.86 1132.59 1996.5C1132.59 1986.14 1124.17 1977.71 1113.81 1977.71C1104.59 1977.71 1096.92 1984.39 1095.34 1993.15H1073.26L1064 1983.88H1038.76V1957.74H1058.57C1060.23 1966.42 1067.86 1973 1077.02 1973C1087.38 1973 1095.8 1964.57 1095.8 1954.22C1095.8 1943.86 1087.37 1935.43 1077.02 1935.43ZM853.173 1942.48C846.699 1942.48 841.431 1947.75 841.431 1954.22C841.431 1960.7 846.699 1965.96 853.173 1965.96C859.648 1965.96 864.916 1960.69 864.916 1954.22C864.916 1947.75 859.648 1942.48 853.173 1942.48ZM804.643 1911.49C804.643 1905.02 809.912 1899.75 816.386 1899.75C822.86 1899.75 828.128 1905.02 828.128 1911.49C828.128 1917.97 822.86 1923.24 816.386 1923.24C809.911 1923.24 804.643 1917.97 804.643 1911.49ZM816.386 1984.77C809.912 1984.77 804.643 1990.04 804.643 1996.51C804.643 2002.99 809.911 2008.26 816.386 2008.26C822.86 2008.26 828.128 2002.99 828.128 1996.51C828.128 1990.04 822.86 1984.77 816.386 1984.77ZM1108.33 1849.79C1108.33 1856.26 1103.06 1861.53 1096.58 1861.53C1090.11 1861.53 1084.84 1856.26 1084.84 1849.79C1084.84 1843.31 1090.11 1838.04 1096.58 1838.04C1103.06 1838.04 1108.33 1843.31 1108.33 1849.79ZM833.6 1838.04C827.126 1838.04 821.858 1843.31 821.858 1849.78C821.858 1856.26 827.126 1861.53 833.6 1861.53C840.074 1861.53 845.343 1856.26 845.343 1849.78C845.343 1843.31 840.075 1838.04 833.6 1838.04ZM1125.54 1911.49C1125.54 1917.97 1120.27 1923.23 1113.8 1923.23C1107.33 1923.23 1102.06 1917.97 1102.06 1911.49C1102.06 1905.02 1107.33 1899.75 1113.8 1899.75C1120.27 1899.75 1125.54 1905.02 1125.54 1911.49ZM833.6 2046.48C827.126 2046.48 821.858 2051.75 821.858 2058.22C821.858 2064.7 827.126 2069.96 833.6 2069.96C840.074 2069.96 845.343 2064.69 845.343 2058.22C845.343 2051.74 840.075 2046.48 833.6 2046.48ZM1077.01 1965.97C1083.49 1965.97 1088.75 1960.7 1088.75 1954.22C1088.75 1947.75 1083.49 1942.48 1077.01 1942.48C1070.54 1942.48 1065.27 1947.75 1065.27 1954.22C1065.27 1960.7 1070.54 1965.97 1077.01 1965.97ZM1125.54 1996.51C1125.54 2002.99 1120.27 2008.25 1113.8 2008.25C1107.33 2008.25 1102.06 2002.99 1102.06 1996.51C1102.06 1990.04 1107.33 1984.76 1113.8 1984.76C1120.27 1984.76 1125.54 1990.04 1125.54 1996.51ZM1096.58 2069.96C1103.06 2069.96 1108.33 2064.69 1108.33 2058.21C1108.33 2051.74 1103.06 2046.48 1096.58 2046.48C1090.11 2046.48 1084.84 2051.74 1084.84 2058.21C1084.84 2064.69 1090.11 2069.96 1096.58 2069.96Z"/>
</mask>
<path fill-rule="evenodd" clip-rule="evenodd" d="M1077.02 1935.43C1067.86 1935.43 1060.22 1942.02 1058.57 1950.69L1038.75 1950.7V1924.11H1063.99L1073.26 1914.85H1095.33C1096.92 1923.61 1104.59 1930.28 1113.8 1930.28C1124.16 1930.28 1132.59 1921.85 1132.59 1911.5C1132.59 1901.13 1124.16 1892.71 1113.8 1892.71C1104.71 1892.71 1097.11 1899.21 1095.39 1907.8H1070.35L1061.08 1917.07H1038.76V1892.15H1058.56L1085.02 1864.56C1088.22 1867.06 1092.22 1868.57 1096.59 1868.57C1106.95 1868.57 1115.37 1860.14 1115.37 1849.79C1115.37 1839.43 1106.95 1831 1096.59 1831C1086.23 1831 1077.8 1839.43 1077.8 1849.79C1077.8 1853.23 1078.75 1856.45 1080.38 1859.23L1055.56 1885.11H1038.45C1036.97 1877.51 1030.28 1871.78 1022.26 1871.78H907.946C899.913 1871.78 893.234 1877.51 891.747 1885.11H874.637L849.822 1859.23C851.449 1856.45 852.395 1853.23 852.395 1849.79C852.395 1839.43 843.965 1831 833.606 1831C823.247 1831 814.821 1839.43 814.821 1849.79C814.821 1860.15 823.248 1868.57 833.606 1868.57C837.97 1868.57 841.981 1867.06 845.173 1864.56L871.635 1892.15H891.438V1917.07H869.118L859.845 1907.8H834.805C833.085 1899.21 825.48 1892.71 816.386 1892.71C806.024 1892.71 797.597 1901.14 797.597 1911.5C797.597 1921.85 806.028 1930.28 816.386 1930.28C825.6 1930.28 833.27 1923.61 834.856 1914.85H856.929L866.198 1924.11H891.434L891.427 1950.7H871.614C869.96 1942.02 862.327 1935.43 853.171 1935.43C842.812 1935.43 834.382 1943.86 834.382 1954.22C834.382 1964.58 842.813 1973.01 853.171 1973.01C862.327 1973.01 869.963 1966.42 871.614 1957.74H891.43V1983.88H866.195L856.926 1993.15H834.852C833.267 1984.39 825.597 1977.72 816.383 1977.72C806.02 1977.72 797.594 1986.15 797.594 1996.5C797.594 2006.86 806.024 2015.29 816.383 2015.29C825.477 2015.29 833.082 2008.79 834.801 2000.2H859.842L869.114 1990.93H891.435V2015.85H871.632L845.17 2043.44C841.978 2040.94 837.967 2039.43 833.603 2039.43C823.244 2039.43 814.817 2047.86 814.817 2058.21C814.817 2068.57 823.244 2077 833.603 2077C843.961 2077 852.392 2068.57 852.392 2058.21C852.392 2054.77 851.443 2051.55 849.819 2048.77L874.633 2022.9H891.744C893.231 2030.49 899.91 2036.23 907.943 2036.23L1022.27 2036.22C1030.29 2036.22 1036.97 2030.49 1038.46 2022.89H1055.57L1080.38 2048.77C1078.76 2051.55 1077.81 2054.77 1077.81 2058.21C1077.81 2068.57 1086.24 2077 1096.6 2077C1106.95 2077 1115.38 2068.57 1115.38 2058.21C1115.38 2047.85 1106.95 2039.43 1096.6 2039.43C1092.23 2039.43 1088.22 2040.94 1085.02 2043.44L1058.57 2015.85H1038.76V1990.93H1061.08L1070.35 2000.2H1095.39C1097.11 2008.79 1104.72 2015.29 1113.81 2015.29C1124.17 2015.29 1132.59 2006.86 1132.59 1996.5C1132.59 1986.14 1124.17 1977.71 1113.81 1977.71C1104.59 1977.71 1096.92 1984.39 1095.34 1993.15H1073.26L1064 1983.88H1038.76V1957.74H1058.57C1060.23 1966.42 1067.86 1973 1077.02 1973C1087.38 1973 1095.8 1964.57 1095.8 1954.22C1095.8 1943.86 1087.37 1935.43 1077.02 1935.43ZM853.173 1942.48C846.699 1942.48 841.431 1947.75 841.431 1954.22C841.431 1960.7 846.699 1965.96 853.173 1965.96C859.648 1965.96 864.916 1960.69 864.916 1954.22C864.916 1947.75 859.648 1942.48 853.173 1942.48ZM804.643 1911.49C804.643 1905.02 809.912 1899.75 816.386 1899.75C822.86 1899.75 828.128 1905.02 828.128 1911.49C828.128 1917.97 822.86 1923.24 816.386 1923.24C809.911 1923.24 804.643 1917.97 804.643 1911.49ZM816.386 1984.77C809.912 1984.77 804.643 1990.04 804.643 1996.51C804.643 2002.99 809.911 2008.26 816.386 2008.26C822.86 2008.26 828.128 2002.99 828.128 1996.51C828.128 1990.04 822.86 1984.77 816.386 1984.77ZM1108.33 1849.79C1108.33 1856.26 1103.06 1861.53 1096.58 1861.53C1090.11 1861.53 1084.84 1856.26 1084.84 1849.79C1084.84 1843.31 1090.11 1838.04 1096.58 1838.04C1103.06 1838.04 1108.33 1843.31 1108.33 1849.79ZM833.6 1838.04C827.126 1838.04 821.858 1843.31 821.858 1849.78C821.858 1856.26 827.126 1861.53 833.6 1861.53C840.074 1861.53 845.343 1856.26 845.343 1849.78C845.343 1843.31 840.075 1838.04 833.6 1838.04ZM1125.54 1911.49C1125.54 1917.97 1120.27 1923.23 1113.8 1923.23C1107.33 1923.23 1102.06 1917.97 1102.06 1911.49C1102.06 1905.02 1107.33 1899.75 1113.8 1899.75C1120.27 1899.75 1125.54 1905.02 1125.54 1911.49ZM833.6 2046.48C827.126 2046.48 821.858 2051.75 821.858 2058.22C821.858 2064.7 827.126 2069.96 833.6 2069.96C840.074 2069.96 845.343 2064.69 845.343 2058.22C845.343 2051.74 840.075 2046.48 833.6 2046.48ZM1077.01 1965.97C1083.49 1965.97 1088.75 1960.7 1088.75 1954.22C1088.75 1947.75 1083.49 1942.48 1077.01 1942.48C1070.54 1942.48 1065.27 1947.75 1065.27 1954.22C1065.27 1960.7 1070.54 1965.97 1077.01 1965.97ZM1125.54 1996.51C1125.54 2002.99 1120.27 2008.25 1113.8 2008.25C1107.33 2008.25 1102.06 2002.99 1102.06 1996.51C1102.06 1990.04 1107.33 1984.76 1113.8 1984.76C1120.27 1984.76 1125.54 1990.04 1125.54 1996.51ZM1096.58 2069.96C1103.06 2069.96 1108.33 2064.69 1108.33 2058.21C1108.33 2051.74 1103.06 2046.48 1096.58 2046.48C1090.11 2046.48 1084.84 2051.74 1084.84 2058.21C1084.84 2064.69 1090.11 2069.96 1096.58 2069.96Z" fill="white" stroke="#ED1E40" stroke-width="4" mask="url(#path-136-inside-2_1059_32)"/>
<path d="M925.514 1988.73C920.584 1988.73 916.594 1984.73 916.594 1979.81V1928.92C916.594 1923.99 920.592 1920 925.514 1920C930.444 1920 934.434 1924 934.434 1928.92V1979.81C934.442 1984.73 930.444 1988.73 925.514 1988.73Z" fill="#ED1E40"/>
<path d="M952.502 1976.09C947.572 1976.09 943.582 1972.09 943.582 1967.17V1939.56C943.582 1934.63 947.58 1930.64 952.502 1930.64C957.432 1930.64 961.422 1934.63 961.422 1939.56V1967.17C961.43 1972.09 957.432 1976.09 952.502 1976.09Z" fill="#ED1E40"/>
<path d="M997.476 1974.88C993.209 1977.34 987.747 1975.89 985.286 1971.61L969.645 1944.52C967.185 1940.25 968.64 1934.79 972.916 1932.33C977.184 1929.87 982.645 1931.32 985.106 1935.6L1000.75 1962.69C1003.21 1966.96 1001.74 1972.42 997.476 1974.88Z" fill="#8A1E37"/>
<path d="M988.566 1974.88C992.834 1977.34 998.296 1975.89 1000.76 1971.61L1016.4 1944.52C1018.86 1940.25 1017.4 1934.79 1013.13 1932.33C1008.86 1929.87 1003.4 1931.32 1000.94 1935.6L985.296 1962.69C982.835 1966.96 984.299 1972.42 988.566 1974.88Z" fill="#ED1E40"/>
</svg>
