<svg width="1086" height="3047" viewBox="0 0 1086 3047" fill="none" xmlns="http://www.w3.org/2000/svg">
<rect width="1086" height="3047" fill="black"/>
<circle cx="405.497" cy="1148.5" r="67.203" stroke="white" stroke-width="2.58827"/>
<path d="M418.399 1169.42C419.657 1169.42 420.874 1168.97 421.837 1168.15C422.8 1167.34 423.447 1166.2 423.663 1164.95C423.88 1163.7 423.652 1162.41 423.02 1161.32C425.05 1160.9 426.74 1159.48 427.521 1157.54C428.302 1155.61 428.073 1153.4 426.911 1151.67C429.007 1151.36 430.8 1149.99 431.666 1148.04C432.532 1146.08 432.351 1143.82 431.184 1142.03H441.003C443.219 1142.03 445.266 1140.84 446.374 1138.9C447.482 1136.97 447.482 1134.58 446.374 1132.64C445.266 1130.7 443.219 1129.51 441.003 1129.51H419.336C420.983 1127.8 421.904 1125.5 421.902 1123.11C421.899 1122.26 421.564 1121.45 420.97 1120.86C420.377 1120.26 419.573 1119.92 418.735 1119.92H393.094C386.982 1119.93 381.051 1122.02 376.257 1125.85C374.625 1127.15 372.604 1127.86 370.52 1127.87H365.84C364.962 1127.87 364.121 1128.22 363.501 1128.85C362.88 1129.47 362.532 1130.32 362.531 1131.21V1158.12C362.532 1159.01 362.881 1159.86 363.501 1160.48C364.122 1161.11 364.963 1161.46 365.84 1161.46H370.521C372.603 1161.46 374.624 1162.18 376.256 1163.48C381.049 1167.32 386.983 1169.41 393.099 1169.42L418.399 1169.42ZM418.399 1166.6H405.674C404.762 1166.6 403.919 1166.11 403.463 1165.32C403.008 1164.52 403.008 1163.54 403.463 1162.74C403.919 1161.94 404.762 1161.45 405.674 1161.45H418.399C419.311 1161.45 420.155 1161.94 420.61 1162.74C421.066 1163.54 421.066 1164.52 420.61 1165.32C420.155 1166.11 419.311 1166.6 418.399 1166.6ZM421.779 1158.63H406.529C405.33 1158.6 404.233 1157.94 403.641 1156.89C403.05 1155.83 403.05 1154.54 403.641 1153.49C404.233 1152.43 405.33 1151.77 406.529 1151.74H421.779C422.979 1151.77 424.075 1152.43 424.667 1153.49C425.259 1154.54 425.259 1155.83 424.667 1156.89C424.075 1157.94 422.979 1158.6 421.779 1158.63ZM429.417 1145.48C429.417 1146.39 429.058 1147.27 428.419 1147.91C427.781 1148.55 426.915 1148.92 426.012 1148.92H407.45C406.232 1148.92 405.106 1148.26 404.497 1147.2C403.888 1146.13 403.888 1144.82 404.497 1143.76C405.106 1142.69 406.232 1142.03 407.45 1142.03H426.003H426.003C426.908 1142.03 427.776 1142.4 428.416 1143.04C429.056 1143.69 429.416 1144.56 429.416 1145.48L429.417 1145.48ZM377.994 1161.28C375.867 1159.58 373.233 1158.65 370.52 1158.65H365.84C365.554 1158.65 365.323 1158.41 365.323 1158.12V1131.21C365.323 1131.07 365.377 1130.94 365.474 1130.84C365.57 1130.74 365.702 1130.69 365.84 1130.69H370.52C373.233 1130.68 375.866 1129.76 377.993 1128.06C382.291 1124.62 387.613 1122.75 393.098 1122.74H418.738C418.836 1122.74 418.931 1122.78 419.001 1122.85C419.071 1122.92 419.11 1123.01 419.11 1123.11C419.108 1124.81 418.442 1126.43 417.255 1127.63C416.068 1128.83 414.459 1129.51 412.779 1129.51H404.292C403.65 1129.51 403.09 1129.95 402.936 1130.58C401.699 1135.65 398.397 1139.04 393.126 1140.66C390.56 1141.43 387.883 1141.75 385.211 1141.6C384.442 1141.53 383.762 1142.11 383.694 1142.89C383.626 1143.66 384.194 1144.35 384.964 1144.42C387.963 1144.59 390.97 1144.25 393.852 1143.39C399.716 1141.61 403.671 1137.8 405.351 1132.33H440.998C442.216 1132.33 443.342 1132.99 443.951 1134.05C444.56 1135.12 444.56 1136.43 443.951 1137.5C443.342 1138.56 442.216 1139.22 440.998 1139.22H407.452C405.798 1139.22 404.213 1139.88 403.049 1141.07C401.884 1142.25 401.237 1143.86 401.251 1145.53C401.265 1147.2 401.939 1148.79 403.123 1149.96C401.525 1151.02 400.502 1152.76 400.351 1154.69C400.2 1156.61 400.938 1158.5 402.35 1159.8C401.367 1160.59 400.69 1161.71 400.44 1162.95C400.189 1164.19 400.381 1165.49 400.981 1166.6H393.101C387.616 1166.59 382.294 1164.72 377.996 1161.28L377.994 1161.28Z" fill="white"/>
<path d="M437.311 1137.18H438.832C439.22 1137.21 439.601 1137.07 439.885 1136.81C440.17 1136.54 440.331 1136.17 440.331 1135.77C440.331 1135.38 440.17 1135.01 439.885 1134.74C439.601 1134.47 439.22 1134.34 438.832 1134.37H437.311C436.581 1134.42 436.016 1135.03 436.016 1135.77C436.016 1136.51 436.581 1137.13 437.311 1137.18Z" fill="white"/>
<path d="M441.044 1155.62C440.304 1155 439.23 1155 438.491 1155.62C436.802 1157.04 431.289 1162.15 431.289 1168.44H431.29C431.29 1171.5 432.905 1174.32 435.528 1175.85C438.151 1177.38 441.383 1177.38 444.006 1175.85C446.629 1174.32 448.245 1171.5 448.245 1168.44C448.245 1162.15 442.733 1157.04 441.044 1155.62H441.044ZM439.767 1174.19C438.259 1174.19 436.814 1173.59 435.748 1172.51C434.682 1171.43 434.083 1169.97 434.082 1168.45C434.082 1167.56 434.363 1163.02 439.767 1158.24C445.172 1163.02 445.453 1167.56 445.453 1168.45C445.45 1169.97 444.85 1171.43 443.785 1172.5C442.719 1173.58 441.274 1174.18 439.768 1174.19L439.767 1174.19Z" fill="white"/>
<circle cx="405.497" cy="434.497" r="67.203" stroke="white" stroke-width="2.58827"/>
<path d="M414.659 402.8C403.191 402.8 393.859 412.132 393.859 423.6H397.059C397.059 413.861 404.92 406 414.659 406C424.399 406 432.259 413.861 432.259 423.6H435.459C435.459 412.132 426.128 402.8 414.659 402.8Z" fill="white"/>
<path fill-rule="evenodd" clip-rule="evenodd" d="M385.856 390C379.69 390 374.656 395.034 374.656 401.2V478H377.856V401.2C377.856 396.763 381.419 393.2 385.856 393.2H405.056C409.493 393.2 413.056 396.763 413.056 401.2V404.4H416.256V401.2C416.256 395.034 411.223 390 405.056 390H385.856Z" fill="white"/>
<path fill-rule="evenodd" clip-rule="evenodd" d="M393.858 422C393.432 422 393.024 422.169 392.724 422.471C392.424 422.772 392.256 423.181 392.258 423.606L392.283 430.006C392.286 430.887 393.001 431.599 393.883 431.6H435.457C435.883 431.599 436.291 431.43 436.591 431.129C436.891 430.827 437.059 430.419 437.057 429.994L437.032 423.594C437.029 422.712 436.314 422 435.432 422L393.858 422ZM395.464 425.2H433.839L433.851 428.4H395.476L395.464 425.2Z" fill="white"/>
<path fill-rule="evenodd" clip-rule="evenodd" d="M429.055 436.4V446H432.255V436.4H429.055Z" fill="white"/>
<path fill-rule="evenodd" clip-rule="evenodd" d="M421.055 436.4V452.4H424.255V436.4H421.055Z" fill="white"/>
<path fill-rule="evenodd" clip-rule="evenodd" d="M413.055 436.4V446H416.255V436.4H413.055Z" fill="white"/>
<path fill-rule="evenodd" clip-rule="evenodd" d="M405.055 436.4V452.4H408.255V436.4H405.055Z" fill="white"/>
<path fill-rule="evenodd" clip-rule="evenodd" d="M397.055 436.4V446H400.255V436.4H397.055Z" fill="white"/>
<path fill-rule="evenodd" clip-rule="evenodd" d="M429.055 449.2V452.4H432.255V449.2H429.055Z" fill="white"/>
<path fill-rule="evenodd" clip-rule="evenodd" d="M397.055 449.204V452.404H400.255V449.204H397.055Z" fill="white"/>
<line x1="849.295" y1="338" x2="849.295" y2="1816" stroke="white" stroke-width="2.59"/>
<line x1="808.295" y1="554" x2="808.295" y2="1816" stroke="white" stroke-width="2.59"/>
<circle cx="129" cy="196" r="67.8609" stroke="white" stroke-width="2.27829"/>
<rect x="95.7055" y="168.706" width="54.0245" height="54.0245" rx="3.23306" stroke="white" stroke-width="3.87968" stroke-linejoin="round"/>
<path d="M165.834 212.351L150.434 203.111V188.943L165.834 179.703V212.351Z" stroke="white" stroke-width="3.87968" stroke-linejoin="round"/>
<mask id="path-21-inside-1_1072_248" fill="white">
<rect x="102.387" y="176.622" width="9.85604" height="3.69601" rx="1.29323"/>
</mask>
<rect x="102.387" y="176.622" width="9.85604" height="3.69601" rx="1.29323" stroke="white" stroke-width="3.69601" stroke-linejoin="round" mask="url(#path-21-inside-1_1072_248)"/>
<circle cx="267" cy="312" r="67.8609" stroke="white" stroke-width="2.27829"/>
<path d="M224.734 303.924C250.081 275.759 283.876 275.759 309.223 303.924M241.632 320.821C256.84 303.924 277.117 303.924 292.325 320.821" stroke="white" stroke-width="5.01703" stroke-linecap="round" stroke-linejoin="round"/>
<path d="M266.978 341.943C269.311 341.943 271.203 340.052 271.203 337.719C271.203 335.386 269.311 333.495 266.978 333.495C264.645 333.495 262.754 335.386 262.754 337.719C262.754 340.052 264.645 341.943 266.978 341.943Z" stroke="white" stroke-width="5.01703" stroke-linecap="round" stroke-linejoin="round"/>
<circle cx="129" cy="428" r="67.8609" stroke="white" stroke-width="2.27829"/>
<path d="M147.856 430.916C150.995 431.858 153.819 433.427 155.703 435.938C161.038 441.901 160.724 451.003 155.703 456.965C152.564 460.418 148.17 462.615 143.463 462.615H95.7576C91.6777 462.615 87.5976 460.732 84.7726 458.221C79.1231 452.885 78.1816 444.411 82.2616 438.134C83.2031 435.937 85.086 434.368 86.9696 432.798C85.7141 427.463 86.3421 421.813 89.1665 416.791C94.502 406.748 106.742 402.667 117.414 407.061C123.377 409.572 128.085 414.594 129.968 421.185C131.851 420.243 133.734 419.929 135.617 419.929C139.383 419.929 142.836 421.812 145.347 424.637C146.602 426.52 147.544 428.403 147.858 430.914L147.856 430.916ZM152.564 438.763C150.053 435.624 147.229 434.997 143.463 434.369C143.777 431.544 143.777 429.347 141.58 426.836C140.01 424.953 137.814 424.012 135.617 424.012C131.851 424.012 129.654 426.523 127.143 428.72C125.887 420.56 124.004 414.282 115.216 410.83C107.056 407.378 97.6405 410.83 93.2466 418.363C89.7941 424.012 90.1081 429.034 91.9911 434.996C89.48 436.252 87.2831 437.507 85.7141 440.332C82.8896 445.04 83.5171 451.317 87.597 455.083C89.794 456.966 92.6186 458.222 95.7571 458.222H143.462C146.914 458.222 150.053 456.966 152.563 454.142C156.329 449.748 156.329 443.157 152.563 438.764L152.564 438.763Z" fill="white"/>
<path d="M162.922 444.412L169.199 450.689L166.061 453.513L160.098 447.55C161.039 446.609 161.981 445.353 162.922 444.412Z" fill="white"/>
<path d="M169.512 424.012H178.3V428.406H169.512C169.826 426.837 169.826 425.582 169.512 424.012Z" fill="white"/>
<path d="M160.098 405.181L166.375 398.904L169.513 402.042L163.236 408.319C162.295 407.064 161.039 406.122 160.098 405.181Z" fill="white"/>
<path d="M139.703 398.589V389.801H144.097V398.589C142.528 398.275 141.273 398.275 139.703 398.589Z" fill="white"/>
<path d="M120.863 408.005L114.586 402.042L117.41 398.904L123.687 405.181C122.746 406.122 121.49 407.064 120.863 408.005Z" fill="white"/>
<path fill-rule="evenodd" clip-rule="evenodd" d="M141.898 402.983C154.766 402.983 165.123 413.34 165.123 426.208C165.123 432.799 162.612 438.448 158.532 442.528C158.218 441.272 157.591 440.017 156.649 438.762C159.473 435.31 161.357 430.915 161.357 426.208C161.357 415.537 152.569 406.75 141.899 406.75C135.308 406.75 129.659 409.889 126.207 414.91C125.266 413.655 124.324 412.713 123.383 411.772C127.777 406.436 134.368 402.983 141.9 402.983L141.898 402.983Z" fill="white"/>
<circle cx="405" cy="194" r="67.7059" stroke="white" stroke-width="2.58827"/>
<path d="M414.849 174.526V150.928C414.849 149.754 414.383 148.628 413.553 147.799C412.723 146.969 411.597 146.503 410.424 146.503H401.575C400.401 146.503 399.275 146.969 398.446 147.799C397.617 148.628 397.15 149.754 397.15 150.928V174.526C395.447 174.529 393.796 175.121 392.479 176.202C391.162 177.282 390.259 178.785 389.923 180.455C389.874 180.442 389.826 180.432 389.776 180.426C388.961 180.426 388.301 181.086 388.301 181.9V184.85C388.301 185.241 388.456 185.617 388.733 185.893C389.009 186.17 389.385 186.325 389.776 186.325V187.8C388.961 187.8 388.301 188.46 388.301 189.275V192.225C388.301 192.616 388.456 192.991 388.733 193.268C389.009 193.544 389.385 193.7 389.776 193.7V199.599C389.778 201.554 390.556 203.429 391.938 204.812C393.321 206.194 395.195 206.971 397.15 206.974V230.572C397.15 231.746 397.616 232.872 398.446 233.701C399.276 234.531 400.402 234.997 401.575 234.997H410.424C411.598 234.997 412.724 234.531 413.553 233.701C414.383 232.871 414.849 231.745 414.849 230.572V206.974C416.804 206.971 418.678 206.194 420.061 204.812C421.443 203.429 422.221 201.554 422.223 199.599V181.9C422.221 179.945 421.443 178.071 420.061 176.688C418.678 175.306 416.804 174.529 414.849 174.526V174.526V174.526ZM400.1 150.928C400.1 150.113 400.76 149.453 401.575 149.453H410.424C410.815 149.453 411.191 149.608 411.467 149.885C411.744 150.161 411.899 150.536 411.899 150.928V174.526H400.1V150.928ZM411.899 230.572C411.899 230.963 411.744 231.339 411.467 231.615C411.191 231.892 410.815 232.047 410.424 232.047H401.575C400.76 232.047 400.1 231.387 400.1 230.572V206.974H411.899V230.572ZM419.274 199.599C419.274 200.773 418.807 201.899 417.978 202.728C417.148 203.558 416.022 204.024 414.849 204.024H397.15C395.977 204.024 394.851 203.558 394.021 202.728C393.192 201.899 392.725 200.773 392.725 199.599V181.901C392.725 180.727 393.192 179.601 394.021 178.772C394.851 177.942 395.977 177.476 397.15 177.476H414.849C416.022 177.476 417.148 177.942 417.978 178.772C418.807 179.601 419.274 180.727 419.274 181.901V199.599Z" fill="white"/>
<circle cx="267" cy="545" r="67.7059" stroke="white" stroke-width="2.58827"/>
<path d="M216.133 548.582V567.936C216.133 568.71 216.742 569.318 217.515 569.318H221.663V576.231C221.663 577.004 222.271 577.613 223.045 577.613H234.104C234.878 577.613 235.486 577.004 235.486 576.231V569.318H299.076V576.231C299.076 577.004 299.684 577.613 300.458 577.613H311.518C312.291 577.613 312.9 577.004 312.9 576.231L312.901 569.318H317.048C317.822 569.318 318.43 568.71 318.43 567.936V548.582C318.43 543.246 314.089 538.906 308.753 538.906H307.371V518.17C307.371 514.354 304.275 511.257 300.459 511.257H234.104C230.288 511.257 227.191 514.354 227.191 518.17V538.906H225.809C220.473 538.906 216.133 543.246 216.133 548.582H216.133ZM232.722 574.847H224.428V569.318H232.722V574.847ZM310.135 574.847H301.841V569.318H310.135V574.847ZM315.665 566.553H218.896V558.258H315.663L315.665 566.553ZM229.956 518.17C229.956 515.875 231.808 514.023 234.103 514.023H300.458C302.753 514.023 304.605 515.875 304.605 518.17V538.906H299.076V531.994C299.076 529.699 297.224 527.847 294.929 527.847H278.34C276.045 527.847 274.193 529.699 274.193 531.994V538.906H260.369V531.994C260.369 529.699 258.517 527.847 256.222 527.847H239.633C237.338 527.847 235.486 529.699 235.486 531.994L235.485 538.906H229.956L229.956 518.17ZM296.311 531.994V538.906H276.957V531.994C276.957 531.22 277.565 530.612 278.339 530.612H294.928C295.703 530.612 296.311 531.22 296.311 531.994H296.311ZM257.604 531.994V538.906H238.25V531.994C238.25 531.22 238.859 530.612 239.633 530.612H256.221C256.996 530.612 257.604 531.22 257.604 531.994H257.604ZM225.808 541.67H308.752C312.568 541.67 315.665 544.767 315.665 548.583V555.495H218.897V548.583C218.897 544.767 221.993 541.67 225.809 541.67H225.808Z" fill="white"/>
<circle cx="266.5" cy="790.5" r="68.2059" stroke="white" stroke-width="2.58827"/>
<path d="M292.898 765.484V761.027C292.898 760.633 292.741 760.255 292.463 759.976C292.184 759.698 291.806 759.541 291.412 759.541V753.599C291.41 751.63 290.627 749.742 289.234 748.349C287.842 746.957 285.954 746.174 283.984 746.171H248.33C246.361 746.174 244.473 746.957 243.08 748.349C241.688 749.742 240.905 751.63 240.902 753.599V827.878C240.905 829.847 241.688 831.736 243.08 833.128C244.473 834.52 246.361 835.304 248.33 835.306H283.984C285.954 835.304 287.842 834.52 289.234 833.128C290.627 831.736 291.41 829.847 291.412 827.878V784.796C291.806 784.796 292.184 784.64 292.463 784.361C292.741 784.083 292.898 783.705 292.898 783.311V771.426C292.898 771.032 292.741 770.654 292.463 770.375C292.184 770.097 291.806 769.94 291.412 769.94V766.969C291.806 766.969 292.184 766.813 292.463 766.534C292.741 766.256 292.898 765.878 292.898 765.484ZM288.441 827.878C288.441 829.06 287.972 830.194 287.136 831.03C286.3 831.865 285.166 832.335 283.985 832.335H248.33C247.149 832.335 246.014 831.866 245.179 831.03C244.343 830.194 243.874 829.06 243.874 827.878V753.599C243.874 752.417 244.343 751.283 245.179 750.447C246.015 749.612 247.149 749.142 248.33 749.142H283.985C285.166 749.142 286.301 749.612 287.136 750.447C287.972 751.283 288.441 752.417 288.441 753.599V827.878Z" fill="white"/>
<path d="M266.157 750.628H261.7C260.88 750.628 260.215 751.293 260.215 752.114C260.215 752.934 260.88 753.599 261.7 753.599H266.157C266.978 753.599 267.643 752.934 267.643 752.114C267.643 751.293 266.978 750.628 266.157 750.628Z" fill="white"/>
<path d="M272.1 752.114C272.1 752.934 271.435 753.599 270.614 753.599C269.794 753.599 269.129 752.934 269.129 752.114C269.129 751.293 269.794 750.628 270.614 750.628C271.435 750.628 272.1 751.293 272.1 752.114Z" fill="white"/>
<circle cx="129" cy="1148" r="67.7059" stroke="white" stroke-width="2.58827"/>
<path d="M169.891 1140.18C168.853 1136.59 165.927 1133.95 161.396 1132.44C158.092 1131.4 154.883 1131.3 154.033 1131.3H151.201C149.691 1131.3 148.18 1131.3 146.576 1131.4L112.217 1131.4C110.706 1131.4 109.102 1131.3 107.591 1131.3H104.759C103.91 1131.3 100.701 1131.4 97.3965 1132.44C92.9599 1133.85 90.0337 1136.5 88.9014 1140.18C88.8072 1140.37 88.4293 1141.12 86.7305 1141.31V1146.22C86.7305 1146.22 87.5799 1146.31 88.1461 1146.97C88.0519 1150.09 88.3351 1154.05 89.5617 1158.02C90.506 1161.13 93.5263 1164.81 102.305 1164.81C105.892 1164.81 109.008 1164.15 109.385 1164.06C110.234 1163.87 118.352 1162.08 124.016 1149.43V1149.52L127.037 1143.76C127.037 1143.76 126.848 1143.29 126.282 1142.73C126.282 1142.44 126.376 1142.16 126.376 1141.88C126.565 1141.59 127.32 1141.22 129.397 1141.22C131.568 1141.22 132.229 1141.59 132.418 1141.88C132.418 1142.16 132.512 1142.44 132.512 1142.73C131.851 1143.29 131.757 1143.76 131.757 1143.76L134.778 1149.52V1149.33C140.346 1162.17 148.559 1163.96 149.408 1164.15C149.785 1164.25 152.901 1164.91 156.488 1164.91C165.266 1164.91 168.287 1161.23 169.231 1158.11C170.458 1154.15 170.742 1150.18 170.647 1147.07C171.213 1146.5 172.062 1146.31 172.062 1146.31V1141.31C170.364 1141.12 169.986 1140.27 169.892 1140.18L169.891 1140.18H169.891ZM123.45 1140.84C123.45 1142.73 122.977 1144.14 122.977 1144.14C121.467 1148.58 118.73 1154.71 114.01 1158.49C111.178 1160.76 109.007 1161.13 109.007 1161.13H108.913C108.913 1161.13 105.892 1161.79 102.4 1161.79C99.851 1161.79 97.7743 1161.42 96.1696 1160.76C94.2819 1160 93.0546 1158.77 92.4883 1157.07C90.0342 1149.24 91.7331 1141.4 91.8272 1140.93C93.7149 1134.42 103.626 1134.23 104.759 1134.23H112.027C117.313 1134.32 119.201 1134.7 119.673 1134.8C123.071 1138.1 123.26 1140.08 123.354 1140.46L123.45 1140.84H123.45ZM129.396 1138.76C129.113 1138.76 127.226 1138.67 126.187 1139.14C125.81 1138.01 125.055 1136.4 123.355 1134.33H135.532C133.833 1136.31 132.983 1137.91 132.7 1139.14C131.567 1138.67 129.774 1138.76 129.396 1138.76H129.396V1138.76ZM166.399 1157.17C165.833 1158.87 164.7 1160.09 162.717 1160.85C161.113 1161.51 158.942 1161.89 156.487 1161.89C152.995 1161.89 149.974 1161.23 149.974 1161.23H149.88C149.88 1161.23 147.614 1160.85 144.877 1158.58C140.157 1154.71 137.325 1148.67 135.91 1144.24C135.91 1144.24 135.438 1142.82 135.438 1140.93V1140.74C135.438 1140.46 135.627 1138.38 139.119 1135.08C139.591 1134.98 141.479 1134.61 146.765 1134.51H150.918V1134.42H154.033C155.165 1134.42 165.077 1134.61 166.964 1141.12C167.154 1141.5 168.853 1149.33 166.399 1157.17L166.399 1157.17V1157.17Z" fill="white"/>
<path d="M94.649 1140.6H84.4062V1146.3H94.649V1140.6Z" fill="white"/>
<circle cx="266" cy="1032" r="67.7059" stroke="white" stroke-width="2.58827"/>
<path d="M289.703 1039.4H242.175C231.686 1039.4 223.152 1030.87 223.152 1020.38C223.152 1009.89 231.686 1001.36 242.175 1001.36H289.703C300.192 1001.36 308.726 1009.89 308.726 1020.38C308.726 1030.87 300.192 1039.4 289.703 1039.4ZM242.175 1004.56C233.451 1004.56 226.354 1011.65 226.354 1020.38C226.354 1029.1 233.451 1036.2 242.175 1036.2H289.703C298.427 1036.2 305.525 1029.1 305.525 1020.38C305.525 1011.65 298.427 1004.56 289.703 1004.56H242.175V1004.56Z" fill="white"/>
<path d="M285.249 1062.39H245.031V1060.87C245.031 1055.52 249.386 1051.16 254.74 1051.16H275.541C280.894 1051.16 285.249 1055.52 285.249 1060.87V1062.39ZM248.239 1059.35H282.041C281.352 1056.4 278.699 1054.2 275.541 1054.2H254.74C251.581 1054.2 248.928 1056.4 248.239 1059.35Z" fill="white"/>
<path d="M265.134 1033.2C258.066 1033.2 252.316 1027.45 252.316 1020.38C252.316 1013.31 258.066 1007.56 265.134 1007.56C272.202 1007.56 277.952 1013.31 277.952 1020.38C277.952 1027.45 272.202 1033.2 265.134 1033.2V1033.2ZM265.134 1010.6C259.739 1010.6 255.35 1014.98 255.35 1020.38C255.35 1025.77 259.739 1030.16 265.134 1030.16C270.529 1030.16 274.918 1025.77 274.918 1020.38C274.918 1014.98 270.529 1010.6 265.134 1010.6V1010.6Z" fill="white"/>
<path d="M265.142 1026.54C261.742 1026.54 258.977 1023.78 258.977 1020.38C258.977 1016.98 261.742 1014.21 265.142 1014.21C268.541 1014.21 271.307 1016.98 271.307 1020.38C271.307 1023.78 268.541 1026.54 265.142 1026.54ZM265.142 1017.25C263.415 1017.25 262.011 1018.65 262.011 1020.38C262.011 1022.1 263.415 1023.51 265.142 1023.51C266.868 1023.51 268.273 1022.1 268.273 1020.38C268.273 1018.65 266.868 1017.25 265.142 1017.25Z" fill="white"/>
<path d="M272.361 1054.2H257.449V1036.22H272.361V1054.2ZM260.483 1051.16H269.327V1039.26H260.483V1051.16Z" fill="white"/>
<circle cx="267" cy="1264" r="67.7059" stroke="white" stroke-width="2.58827"/>
<path d="M275.98 1300.36C274.437 1300.36 272.955 1299.75 271.863 1298.66C270.77 1297.57 270.156 1296.09 270.156 1294.55V1246.69C270.156 1246.06 270.666 1245.55 271.294 1245.55C271.922 1245.55 272.431 1246.06 272.431 1246.69C272.432 1249.71 273.245 1252.68 274.786 1255.28C276.327 1257.88 278.539 1260.02 281.191 1261.48C281.552 1261.68 281.774 1262.06 281.771 1262.48V1294.55C281.773 1296.09 281.165 1297.56 280.08 1298.65C278.993 1299.74 277.519 1300.36 275.98 1300.36V1300.36H275.98ZM272.397 1255.75V1294.55C272.342 1295.52 272.69 1296.47 273.358 1297.18C274.026 1297.88 274.956 1298.29 275.929 1298.29C276.902 1298.29 277.832 1297.88 278.501 1297.18C279.169 1296.47 279.516 1295.52 279.461 1294.55V1263.14C276.48 1261.36 274.038 1258.8 272.397 1255.74L272.397 1255.75V1255.75Z" fill="white"/>
<path d="M289.268 1265.84C283.306 1265.84 277.681 1263.08 274.051 1258.35C270.422 1253.62 269.202 1247.47 270.753 1241.71C272.303 1235.95 276.447 1231.25 281.961 1228.98C287.475 1226.72 293.73 1227.15 298.881 1230.15C300.634 1231.2 301.706 1233.09 301.702 1235.13V1258.27C301.71 1260.31 300.637 1262.21 298.881 1263.25C295.96 1264.95 292.644 1265.84 289.268 1265.84L289.268 1265.84V1265.84ZM289.268 1229.83C288.63 1229.83 287.992 1229.87 287.357 1229.93C283.574 1230.37 280.048 1232.06 277.348 1234.74C274.648 1237.43 272.932 1240.94 272.478 1244.72C271.905 1249.51 273.427 1254.31 276.653 1257.89C279.85 1261.5 284.43 1263.56 289.245 1263.58C292.218 1263.59 295.14 1262.81 297.708 1261.31C298.238 1261 298.675 1260.55 298.977 1260.02C299.279 1259.49 299.434 1258.88 299.426 1258.27V1235.13C299.438 1233.9 298.798 1232.75 297.743 1232.11C295.171 1230.61 292.245 1229.82 289.268 1229.83L289.268 1229.83V1229.83Z" fill="white"/>
<path d="M257.837 1300.36C256.295 1300.36 254.816 1299.75 253.726 1298.66C252.636 1297.57 252.023 1296.09 252.023 1294.55V1262.48C252.022 1262.06 252.25 1261.68 252.615 1261.48C255.263 1260.02 257.471 1257.88 259.01 1255.28C260.548 1252.68 261.361 1249.71 261.363 1246.69C261.363 1246.06 261.872 1245.55 262.5 1245.55C263.129 1245.55 263.638 1246.06 263.638 1246.69V1294.55C263.638 1296.09 263.027 1297.56 261.94 1298.65C260.852 1299.74 259.376 1300.36 257.837 1300.36L257.837 1300.36V1300.36ZM254.299 1263.14V1294.55C254.244 1295.52 254.591 1296.47 255.259 1297.18C255.928 1297.89 256.858 1298.29 257.831 1298.29C258.804 1298.29 259.734 1297.89 260.402 1297.18C261.07 1296.47 261.418 1295.52 261.363 1294.55V1255.75C259.722 1258.81 257.28 1261.36 254.299 1263.14L254.299 1263.14V1263.14Z" fill="white"/>
<path d="M244.492 1265.83C241.115 1265.83 237.799 1264.94 234.88 1263.24C233.126 1262.2 232.054 1260.31 232.059 1258.27V1235.13C232.054 1233.09 233.126 1231.2 234.88 1230.15C240.027 1227.16 246.271 1226.74 251.772 1229.01C257.273 1231.28 261.406 1235.98 262.954 1241.72C264.501 1247.47 263.288 1253.61 259.67 1258.33C256.052 1263.06 250.442 1265.83 244.492 1265.83V1265.83H244.492ZM236.029 1232.11C234.966 1232.74 234.32 1233.89 234.333 1235.13V1258.27C234.322 1259.5 234.967 1260.65 236.029 1261.28C238.598 1262.78 241.519 1263.57 244.492 1263.56C249.308 1263.54 253.887 1261.47 257.085 1257.87C260.31 1254.29 261.832 1249.49 261.259 1244.7C260.595 1239.06 257.131 1234.13 252.046 1231.59C246.96 1229.05 240.939 1229.25 236.029 1232.11L236.029 1232.11V1232.11Z" fill="white"/>
<path d="M285.906 1247.83H278.477C277.849 1247.83 277.34 1247.32 277.34 1246.69C277.34 1246.06 277.849 1245.55 278.477 1245.55H285.906C286.534 1245.55 287.043 1246.06 287.043 1246.69C287.043 1247.32 286.534 1247.83 285.906 1247.83Z" fill="white"/>
<path d="M255.277 1247.83H247.848C247.22 1247.83 246.711 1247.32 246.711 1246.69C246.711 1246.06 247.22 1245.55 247.848 1245.55H255.277C255.905 1245.55 256.414 1246.06 256.414 1246.69C256.414 1247.32 255.905 1247.83 255.277 1247.83Z" fill="white"/>
<circle cx="129" cy="1380" r="67.7059" stroke="white" stroke-width="2.58827"/>
<path d="M103.612 1369.79C102.113 1369.79 100.988 1368.54 100.988 1367.17C100.988 1365.67 102.238 1364.54 103.612 1364.54C104.986 1364.54 106.235 1365.79 106.235 1367.17C106.235 1368.54 105.111 1369.79 103.612 1369.79ZM103.612 1366.29C103.112 1366.29 102.862 1366.67 102.862 1367.04C102.862 1367.54 103.237 1367.79 103.612 1367.79C103.987 1367.79 104.362 1367.42 104.362 1367.04C104.362 1366.67 103.987 1366.29 103.612 1366.29Z" fill="white" stroke="white" stroke-width="0.5"/>
<path d="M101.862 1384.91C100.363 1384.91 99.2383 1383.66 99.2383 1382.29C99.2383 1380.91 100.488 1379.66 101.862 1379.66C103.236 1379.66 104.485 1380.91 104.485 1382.29C104.485 1383.66 103.361 1384.91 101.862 1384.91ZM101.862 1381.41C101.362 1381.41 101.112 1381.79 101.112 1382.16C101.112 1382.54 101.487 1382.91 101.862 1382.91C102.237 1382.91 102.612 1382.54 102.612 1382.16C102.612 1381.79 102.361 1381.41 101.862 1381.41Z" fill="white" stroke="white" stroke-width="0.5"/>
<path d="M104.362 1400.28C102.863 1400.28 101.738 1399.03 101.738 1397.65C101.738 1396.28 102.988 1395.03 104.362 1395.03C105.736 1395.03 106.985 1396.28 106.985 1397.65C106.985 1399.03 105.861 1400.28 104.362 1400.28ZM104.362 1396.78C103.862 1396.78 103.612 1397.15 103.612 1397.53C103.612 1397.9 103.987 1398.28 104.362 1398.28C104.737 1398.28 105.112 1397.9 105.112 1397.53C105.111 1397.15 104.861 1396.78 104.362 1396.78Z" fill="white" stroke="white" stroke-width="0.5"/>
<path d="M157.337 1357.67H145.468C144.968 1357.67 144.469 1357.3 144.469 1356.67C144.469 1356.05 144.844 1355.67 145.468 1355.67H157.337C157.836 1355.67 158.336 1356.05 158.336 1356.67C158.336 1357.3 157.962 1357.67 157.337 1357.67Z" fill="white" stroke="white" stroke-width="0.5"/>
<path d="M157.337 1405.77H145.468C144.968 1405.77 144.469 1405.4 144.469 1404.77C144.469 1404.15 144.844 1403.77 145.468 1403.77H157.337C157.836 1403.77 158.336 1404.15 158.336 1404.77C158.336 1405.4 157.962 1405.77 157.337 1405.77Z" fill="white" stroke="white" stroke-width="0.5"/>
<path fill-rule="evenodd" clip-rule="evenodd" d="M140.969 1336.18H117.731C102.363 1336.18 89.8711 1356.17 89.8711 1380.66C89.8711 1405.15 102.365 1425.14 117.731 1425.14H140.969C156.336 1424.64 168.331 1405.15 168.331 1380.66C168.331 1356.17 156.337 1336.68 140.969 1336.18ZM139.095 1409.02C143.092 1401.27 145.591 1391.4 145.591 1380.53C145.591 1369.79 143.218 1359.92 139.219 1352.17L138.808 1351.39L138.507 1350.87L138.22 1350.43C134.846 1344.68 130.598 1340.43 125.851 1338.06H140.968C147.839 1338.31 154.086 1342.93 158.709 1350.43L159.063 1350.94L159.364 1351.32L159.834 1352.05C163.957 1359.67 166.581 1369.66 166.581 1380.53C166.456 1391.53 163.832 1401.53 159.71 1409.02L159.71 1409.02L159.439 1409.52L159.063 1410.2L158.584 1410.89C154.087 1418.27 147.839 1422.89 140.968 1423.14H125.726C130.598 1420.76 134.846 1416.39 138.219 1410.64C138.215 1410.65 138.431 1410.2 138.431 1410.2L138.844 1409.45L139.095 1409.02ZM129.099 1418.89C120.228 1411.77 114.357 1396.78 114.357 1380.66C114.357 1364.42 120.103 1349.55 129.099 1342.43C137.72 1349.3 143.717 1363.92 143.717 1380.66C143.717 1397.4 137.72 1412.02 129.099 1418.89ZM91.7415 1380.66C91.7415 1357.17 103.361 1338.06 117.728 1338.06C121.226 1338.06 124.475 1339.18 127.473 1341.18C118.353 1348.8 112.481 1364.04 112.481 1380.53C112.481 1397.03 118.353 1412.39 127.473 1419.89C124.475 1421.89 121.102 1423.01 117.728 1423.01C103.36 1423.14 91.7415 1404.15 91.7415 1380.66Z" fill="white" stroke="white" stroke-width="0.5"/>
<circle cx="405" cy="1380" r="67.7059" stroke="white" stroke-width="2.58827"/>
<path d="M448.004 1401.29H440.591C441.567 1400.02 442.099 1398.47 442.104 1396.87V1355.57C442.101 1353.61 441.324 1351.74 439.942 1350.36C438.559 1348.97 436.685 1348.2 434.73 1348.19H375.733C373.779 1348.2 371.904 1348.97 370.521 1350.36C369.139 1351.74 368.362 1353.61 368.359 1355.57V1396.87C368.364 1398.47 368.896 1400.02 369.872 1401.29H362.459C361.645 1401.29 360.984 1401.95 360.984 1402.77C360.987 1405.11 361.92 1407.36 363.579 1409.02C365.238 1410.68 367.488 1411.61 369.834 1411.61H440.629C442.975 1411.61 445.225 1410.68 446.884 1409.02C448.543 1407.36 449.476 1405.11 449.479 1402.77C449.479 1402.37 449.323 1402 449.047 1401.72C448.77 1401.45 448.395 1401.29 448.004 1401.29H448.004V1401.29ZM371.309 1355.57C371.309 1354.4 371.775 1353.27 372.605 1352.44C373.434 1351.61 374.56 1351.14 375.733 1351.14H434.73C435.903 1351.14 437.029 1351.61 437.858 1352.44C438.688 1353.27 439.154 1354.4 439.154 1355.57V1396.87C439.154 1398.04 438.688 1399.16 437.858 1399.99C437.029 1400.82 435.903 1401.29 434.73 1401.29H375.733C374.56 1401.29 373.434 1400.82 372.605 1399.99C371.775 1399.16 371.309 1398.04 371.309 1396.87L371.309 1355.57H371.309ZM440.629 1408.66H369.834C368.526 1408.66 367.256 1408.23 366.222 1407.43C365.189 1406.63 364.45 1405.51 364.121 1404.24H446.342C446.013 1405.51 445.274 1406.63 444.24 1407.43C443.207 1408.23 441.937 1408.66 440.629 1408.66H440.629Z" fill="white"/>
<path d="M400.811 1355.57H405.236C406.05 1355.57 406.71 1354.91 406.71 1354.09C406.71 1353.28 406.05 1352.62 405.236 1352.62H400.811C399.996 1352.62 399.336 1353.28 399.336 1354.09C399.336 1354.91 399.996 1355.57 400.811 1355.57Z" fill="white"/>
<path d="M411.129 1354.09C411.129 1354.91 410.469 1355.57 409.655 1355.57C408.84 1355.57 408.18 1354.91 408.18 1354.09C408.18 1353.28 408.84 1352.62 409.655 1352.62C410.469 1352.62 411.129 1353.28 411.129 1354.09Z" fill="white"/>
<path d="M197 194H336" stroke="white" stroke-width="2.59"/>
<path d="M197 1380H335" stroke="white" stroke-width="2.59"/>
<path d="M336 312H548" stroke="white" stroke-width="2.59"/>
<path d="M335 1032H547" stroke="white" stroke-width="2.59"/>
<path d="M474 428H548" stroke="white" stroke-width="2.59"/>
<path d="M474 1146H548" stroke="white" stroke-width="2.59"/>
<path d="M474 194H548" stroke="white" stroke-width="2.59"/>
<path d="M547 194L850 339" stroke="white" stroke-width="2.59"/>
<path d="M547 428L809 555" stroke="white" stroke-width="2.59"/>
<path d="M546 1032L727 1116" stroke="white" stroke-width="2.59"/>
<path d="M546 1264L686 1331" stroke="white" stroke-width="2.59"/>
<path d="M547 312L849 458" stroke="white" stroke-width="2.59"/>
<path d="M546 544L808 672" stroke="white" stroke-width="2.59"/>
<path d="M547 1146L726 1232" stroke="white" stroke-width="2.59"/>
<path d="M547 1380L685 1446" stroke="white" stroke-width="2.59"/>
<path d="M546 791L768 901" stroke="white" stroke-width="2.59"/>
<path d="M474 1380H548" stroke="white" stroke-width="2.59"/>
<path d="M336 544H547" stroke="white" stroke-width="2.59"/>
<path d="M336 1264H547" stroke="white" stroke-width="2.59"/>
<path d="M336 791H547" stroke="white" stroke-width="2.59"/>
<path d="M198 428H336" stroke="white" stroke-width="2.59"/>
<path d="M198 1146H335" stroke="white" stroke-width="2.59"/>
<line x1="767.295" y1="900" x2="767.295" y2="1816" stroke="white" stroke-width="2.59"/>
<line x1="726.295" y1="1115" x2="726.295" y2="1816" stroke="white" stroke-width="2.59"/>
<line x1="685.295" y1="1333" x2="685.295" y2="1816" stroke="white" stroke-width="2.59"/>
<line x1="685.295" y1="1330" x2="685.295" y2="1446" stroke="white" stroke-width="2.59"/>
<line x1="684.705" y1="2573" x2="684.705" y2="1816" stroke="white" stroke-width="2.59"/>
<line y1="-1.295" x2="757" y2="-1.295" transform="matrix(-4.37114e-08 -1 -1 4.37114e-08 725 2573)" stroke="white" stroke-width="2.59"/>
<line y1="-1.295" x2="757" y2="-1.295" transform="matrix(-4.37114e-08 -1 -1 4.37114e-08 766 2573)" stroke="white" stroke-width="2.59"/>
<line y1="-1.295" x2="757" y2="-1.295" transform="matrix(-4.37114e-08 -1 -1 4.37114e-08 807 2573)" stroke="white" stroke-width="2.59"/>
<line y1="-1.295" x2="757" y2="-1.295" transform="matrix(-4.37114e-08 -1 -1 4.37114e-08 848 2572)" stroke="white" stroke-width="2.59"/>
<path d="M1003.89 2635.46C1003.69 2644.78 1001.8 2653.64 998.656 2661.87L998.655 2661.87C1018.66 2676.52 1031.48 2700.32 1030.93 2726.98C1030.29 2757.37 1012.47 2783.33 986.962 2795.89C981.568 2812.85 970.598 2827.24 956.223 2837.03C954.786 2879.98 919.119 2913.91 876.03 2913.01C874.549 2912.98 854.663 2927.35 849.598 2944.63C836.179 2946.12 786.566 2943.31 786.566 2943.31C784.528 2908.44 784.243 2899.71 779.854 2896.37C775.603 2893.14 767.501 2894.97 750.227 2883.02C715.153 2878.47 674.739 2864.31 669.805 2829.63C665.38 2830.3 660.869 2830.69 656.247 2830.59C637.406 2830.2 621.884 2807.13 619.827 2798.45C613.003 2800.72 605.712 2801.94 598.106 2801.78C567.531 2801.15 542.405 2779.39 536.23 2750.73C508.978 2737.91 490.349 2709.99 491.017 2677.94C491.52 2653.83 502.846 2632.51 520.23 2618.44C520.228 2618.21 520.225 2617.98 520.221 2617.74C520.213 2617.17 520.204 2616.59 520.216 2616.01C521.258 2566.07 561.219 2526.09 610.541 2524.4C626.539 2494.01 658.709 2473.57 695.383 2474.33C709.581 2474.63 722.961 2478.09 734.901 2483.99C750.645 2472.93 769.919 2466.59 790.637 2467.02C823.562 2467.71 852.143 2485.33 868.295 2511.39C874.442 2509.98 880.836 2509.21 887.428 2509.35C921.753 2510.07 950.4 2532.7 960.49 2563.59C986.737 2576.78 1004.54 2604.13 1003.89 2635.46Z" fill="#ED1E40"/>
<path d="M785.288 2778.63H784.462H758.725H757.9L757.743 2777.82C756.229 2769.97 749.23 2764 740.826 2764C731.313 2764 723.594 2771.64 723.594 2781L785.288 2778.63ZM785.288 2778.63L785.444 2777.82M785.288 2778.63L785.444 2777.82M785.444 2777.82C786.959 2769.97 793.957 2764 802.362 2764C811.875 2764 819.594 2771.64 819.594 2781C819.594 2790.36 811.875 2798 802.362 2798C793.957 2798 786.958 2792.03 785.442 2784.19L785.286 2783.38H784.46H758.729H757.904M785.444 2777.82L757.904 2783.38M757.904 2783.38L757.747 2784.19M757.904 2783.38L757.747 2784.19M757.747 2784.19C756.231 2792.03 749.23 2798 740.828 2798C731.315 2798 723.596 2790.36 723.594 2781L757.747 2784.19ZM728.434 2781C728.434 2787.77 734.005 2793.25 740.828 2793.25C747.651 2793.25 753.224 2787.77 753.224 2781C753.224 2774.23 747.651 2768.75 740.828 2768.75C734.007 2768.75 728.434 2774.23 728.434 2781ZM789.966 2781C789.966 2787.77 795.539 2793.25 802.362 2793.25C809.183 2793.25 814.757 2787.77 814.757 2781C814.757 2774.23 809.183 2768.75 802.362 2768.75C795.539 2768.75 789.966 2774.23 789.966 2781Z" fill="white" stroke="#ED1E40" stroke-width="2"/>
<path d="M785.288 2546.63H784.462H758.725H757.9L757.743 2545.82C756.229 2537.97 749.23 2532 740.826 2532C731.313 2532 723.594 2539.64 723.594 2549L785.288 2546.63ZM785.288 2546.63L785.444 2545.82M785.288 2546.63L785.444 2545.82M785.444 2545.82C786.959 2537.97 793.957 2532 802.362 2532C811.875 2532 819.594 2539.64 819.594 2549C819.594 2558.36 811.875 2566 802.362 2566C793.957 2566 786.958 2560.03 785.442 2552.19L785.286 2551.38H784.46H758.729H757.904M785.444 2545.82L757.904 2551.38M757.904 2551.38L757.747 2552.19M757.904 2551.38L757.747 2552.19M757.747 2552.19C756.231 2560.03 749.23 2566 740.828 2566C731.315 2566 723.596 2558.36 723.594 2549L757.747 2552.19ZM728.434 2549C728.434 2555.77 734.005 2561.25 740.828 2561.25C747.651 2561.25 753.224 2555.77 753.224 2549C753.224 2542.23 747.651 2536.75 740.828 2536.75C734.007 2536.75 728.434 2542.23 728.434 2549ZM789.966 2549C789.966 2555.77 795.539 2561.25 802.362 2561.25C809.183 2561.25 814.757 2555.77 814.757 2549C814.757 2542.23 809.183 2536.75 802.362 2536.75C795.539 2536.75 789.966 2542.23 789.966 2549Z" fill="white" stroke="#ED1E40" stroke-width="2"/>
<mask id="path-102-inside-2_1072_248" fill="white">
<path fill-rule="evenodd" clip-rule="evenodd" d="M883.016 2643.43C873.864 2643.43 866.225 2650.02 864.57 2658.69L844.75 2658.7V2632.11H869.989L879.258 2622.85H901.332C902.917 2631.61 910.59 2638.28 919.801 2638.28C930.16 2638.28 938.587 2629.85 938.587 2619.5C938.587 2609.13 930.159 2600.71 919.801 2600.71C910.714 2600.71 903.105 2607.21 901.386 2615.8H876.346L867.076 2625.07H844.756V2600.15H864.559L891.017 2572.56C894.216 2575.06 898.224 2576.57 902.588 2576.57C912.947 2576.57 921.374 2568.14 921.374 2557.79C921.374 2547.43 912.947 2539 902.588 2539C892.229 2539 883.799 2547.43 883.799 2557.79C883.799 2561.23 884.748 2564.45 886.375 2567.23L861.561 2593.11H844.451C842.967 2585.51 836.284 2579.78 828.258 2579.78H713.946C705.913 2579.78 699.234 2585.51 697.747 2593.11H680.637L655.822 2567.23C657.449 2564.45 658.395 2561.23 658.395 2557.79C658.395 2547.43 649.965 2539 639.606 2539C629.247 2539 620.821 2547.43 620.821 2557.79C620.821 2568.15 629.248 2576.57 639.606 2576.57C643.97 2576.57 647.981 2575.06 651.173 2572.56L677.635 2600.15H697.438V2625.07H675.118L665.845 2615.8H640.805C639.085 2607.21 631.48 2600.71 622.386 2600.71C612.024 2600.71 603.597 2609.14 603.597 2619.5C603.597 2629.85 612.028 2638.28 622.386 2638.28C631.6 2638.28 639.27 2631.61 640.856 2622.85H662.929L672.198 2632.11H697.434L697.427 2658.7H677.614C675.96 2650.02 668.327 2643.43 659.171 2643.43C648.812 2643.43 640.382 2651.86 640.382 2662.22C640.382 2672.58 648.813 2681.01 659.171 2681.01C668.327 2681.01 675.963 2674.42 677.614 2665.74H697.43V2691.88H672.195L662.926 2701.15H640.852C639.267 2692.39 631.597 2685.72 622.383 2685.72C612.02 2685.72 603.594 2694.15 603.594 2704.5C603.594 2714.86 612.024 2723.29 622.383 2723.29C631.477 2723.29 639.082 2716.79 640.801 2708.2H665.842L675.114 2698.93H697.435V2723.85H677.632L651.17 2751.44C647.978 2748.94 643.967 2747.43 639.603 2747.43C629.244 2747.43 620.817 2755.86 620.817 2766.21C620.817 2776.57 629.244 2785 639.603 2785C649.961 2785 658.392 2776.57 658.392 2766.21C658.392 2762.77 657.443 2759.55 655.819 2756.77L680.633 2730.9H697.744C699.231 2738.49 705.91 2744.23 713.943 2744.23L828.266 2744.22C836.292 2744.22 842.971 2738.49 844.458 2730.89H861.568L886.382 2756.77C884.755 2759.55 883.806 2762.77 883.806 2766.21C883.806 2776.57 892.237 2785 902.595 2785C912.954 2785 921.381 2776.57 921.381 2766.21C921.381 2755.85 912.954 2747.43 902.595 2747.43C898.232 2747.43 894.22 2748.94 891.024 2751.44L864.566 2723.85H844.763V2698.93H867.084L876.353 2708.2H901.393C903.109 2716.79 910.717 2723.29 919.808 2723.29C930.167 2723.29 938.594 2714.86 938.594 2704.5C938.594 2694.14 930.167 2685.71 919.808 2685.71C910.595 2685.71 902.925 2692.39 901.339 2701.15H879.265L869.996 2691.88H844.757V2665.74H864.574C866.225 2674.42 873.863 2681 883.016 2681C893.375 2681 901.802 2672.57 901.802 2662.22C901.802 2651.86 893.375 2643.43 883.016 2643.43ZM659.173 2650.48C652.699 2650.48 647.431 2655.75 647.431 2662.22C647.431 2668.7 652.699 2673.96 659.173 2673.96C665.648 2673.96 670.916 2668.69 670.916 2662.22C670.916 2655.75 665.648 2650.48 659.173 2650.48ZM610.643 2619.49C610.643 2613.02 615.912 2607.75 622.386 2607.75C628.86 2607.75 634.128 2613.02 634.128 2619.49C634.128 2625.97 628.86 2631.24 622.386 2631.24C615.911 2631.24 610.643 2625.97 610.643 2619.49ZM622.386 2692.77C615.912 2692.77 610.643 2698.04 610.643 2704.51C610.643 2710.99 615.911 2716.26 622.386 2716.26C628.86 2716.26 634.128 2710.99 634.128 2704.51C634.128 2698.04 628.86 2692.77 622.386 2692.77ZM914.328 2557.79C914.328 2564.26 909.059 2569.53 902.585 2569.53C896.11 2569.53 890.842 2564.26 890.842 2557.79C890.842 2551.31 896.111 2546.04 902.585 2546.04C909.059 2546.04 914.328 2551.31 914.328 2557.79ZM639.6 2546.04C633.126 2546.04 627.858 2551.31 627.858 2557.78C627.858 2564.26 633.126 2569.53 639.6 2569.53C646.074 2569.53 651.343 2564.26 651.343 2557.78C651.343 2551.31 646.075 2546.04 639.6 2546.04ZM931.542 2619.49C931.542 2625.97 926.274 2631.23 919.799 2631.23C913.325 2631.23 908.06 2625.97 908.057 2619.49C908.057 2613.02 913.325 2607.75 919.799 2607.75C926.274 2607.75 931.542 2613.02 931.542 2619.49ZM639.6 2754.48C633.126 2754.48 627.858 2759.75 627.858 2766.22C627.858 2772.7 633.126 2777.96 639.6 2777.96C646.074 2777.96 651.343 2772.69 651.343 2766.22C651.343 2759.74 646.075 2754.48 639.6 2754.48ZM883.012 2673.97C889.486 2673.97 894.755 2668.7 894.755 2662.22C894.755 2655.75 889.486 2650.48 883.012 2650.48C876.537 2650.48 871.269 2655.75 871.269 2662.22C871.269 2668.7 876.537 2673.97 883.012 2673.97ZM931.542 2704.51C931.542 2710.99 926.274 2716.25 919.799 2716.25C913.325 2716.25 908.06 2710.99 908.057 2704.51C908.057 2698.04 913.325 2692.76 919.799 2692.76C926.274 2692.76 931.542 2698.04 931.542 2704.51ZM902.585 2777.96C909.059 2777.96 914.328 2772.69 914.328 2766.21C914.328 2759.74 909.059 2754.48 902.585 2754.48C896.111 2754.48 890.842 2759.74 890.842 2766.21C890.842 2772.69 896.11 2777.96 902.585 2777.96Z"/>
</mask>
<path fill-rule="evenodd" clip-rule="evenodd" d="M883.016 2643.43C873.864 2643.43 866.225 2650.02 864.57 2658.69L844.75 2658.7V2632.11H869.989L879.258 2622.85H901.332C902.917 2631.61 910.59 2638.28 919.801 2638.28C930.16 2638.28 938.587 2629.85 938.587 2619.5C938.587 2609.13 930.159 2600.71 919.801 2600.71C910.714 2600.71 903.105 2607.21 901.386 2615.8H876.346L867.076 2625.07H844.756V2600.15H864.559L891.017 2572.56C894.216 2575.06 898.224 2576.57 902.588 2576.57C912.947 2576.57 921.374 2568.14 921.374 2557.79C921.374 2547.43 912.947 2539 902.588 2539C892.229 2539 883.799 2547.43 883.799 2557.79C883.799 2561.23 884.748 2564.45 886.375 2567.23L861.561 2593.11H844.451C842.967 2585.51 836.284 2579.78 828.258 2579.78H713.946C705.913 2579.78 699.234 2585.51 697.747 2593.11H680.637L655.822 2567.23C657.449 2564.45 658.395 2561.23 658.395 2557.79C658.395 2547.43 649.965 2539 639.606 2539C629.247 2539 620.821 2547.43 620.821 2557.79C620.821 2568.15 629.248 2576.57 639.606 2576.57C643.97 2576.57 647.981 2575.06 651.173 2572.56L677.635 2600.15H697.438V2625.07H675.118L665.845 2615.8H640.805C639.085 2607.21 631.48 2600.71 622.386 2600.71C612.024 2600.71 603.597 2609.14 603.597 2619.5C603.597 2629.85 612.028 2638.28 622.386 2638.28C631.6 2638.28 639.27 2631.61 640.856 2622.85H662.929L672.198 2632.11H697.434L697.427 2658.7H677.614C675.96 2650.02 668.327 2643.43 659.171 2643.43C648.812 2643.43 640.382 2651.86 640.382 2662.22C640.382 2672.58 648.813 2681.01 659.171 2681.01C668.327 2681.01 675.963 2674.42 677.614 2665.74H697.43V2691.88H672.195L662.926 2701.15H640.852C639.267 2692.39 631.597 2685.72 622.383 2685.72C612.02 2685.72 603.594 2694.15 603.594 2704.5C603.594 2714.86 612.024 2723.29 622.383 2723.29C631.477 2723.29 639.082 2716.79 640.801 2708.2H665.842L675.114 2698.93H697.435V2723.85H677.632L651.17 2751.44C647.978 2748.94 643.967 2747.43 639.603 2747.43C629.244 2747.43 620.817 2755.86 620.817 2766.21C620.817 2776.57 629.244 2785 639.603 2785C649.961 2785 658.392 2776.57 658.392 2766.21C658.392 2762.77 657.443 2759.55 655.819 2756.77L680.633 2730.9H697.744C699.231 2738.49 705.91 2744.23 713.943 2744.23L828.266 2744.22C836.292 2744.22 842.971 2738.49 844.458 2730.89H861.568L886.382 2756.77C884.755 2759.55 883.806 2762.77 883.806 2766.21C883.806 2776.57 892.237 2785 902.595 2785C912.954 2785 921.381 2776.57 921.381 2766.21C921.381 2755.85 912.954 2747.43 902.595 2747.43C898.232 2747.43 894.22 2748.94 891.024 2751.44L864.566 2723.85H844.763V2698.93H867.084L876.353 2708.2H901.393C903.109 2716.79 910.717 2723.29 919.808 2723.29C930.167 2723.29 938.594 2714.86 938.594 2704.5C938.594 2694.14 930.167 2685.71 919.808 2685.71C910.595 2685.71 902.925 2692.39 901.339 2701.15H879.265L869.996 2691.88H844.757V2665.74H864.574C866.225 2674.42 873.863 2681 883.016 2681C893.375 2681 901.802 2672.57 901.802 2662.22C901.802 2651.86 893.375 2643.43 883.016 2643.43ZM659.173 2650.48C652.699 2650.48 647.431 2655.75 647.431 2662.22C647.431 2668.7 652.699 2673.96 659.173 2673.96C665.648 2673.96 670.916 2668.69 670.916 2662.22C670.916 2655.75 665.648 2650.48 659.173 2650.48ZM610.643 2619.49C610.643 2613.02 615.912 2607.75 622.386 2607.75C628.86 2607.75 634.128 2613.02 634.128 2619.49C634.128 2625.97 628.86 2631.24 622.386 2631.24C615.911 2631.24 610.643 2625.97 610.643 2619.49ZM622.386 2692.77C615.912 2692.77 610.643 2698.04 610.643 2704.51C610.643 2710.99 615.911 2716.26 622.386 2716.26C628.86 2716.26 634.128 2710.99 634.128 2704.51C634.128 2698.04 628.86 2692.77 622.386 2692.77ZM914.328 2557.79C914.328 2564.26 909.059 2569.53 902.585 2569.53C896.11 2569.53 890.842 2564.26 890.842 2557.79C890.842 2551.31 896.111 2546.04 902.585 2546.04C909.059 2546.04 914.328 2551.31 914.328 2557.79ZM639.6 2546.04C633.126 2546.04 627.858 2551.31 627.858 2557.78C627.858 2564.26 633.126 2569.53 639.6 2569.53C646.074 2569.53 651.343 2564.26 651.343 2557.78C651.343 2551.31 646.075 2546.04 639.6 2546.04ZM931.542 2619.49C931.542 2625.97 926.274 2631.23 919.799 2631.23C913.325 2631.23 908.06 2625.97 908.057 2619.49C908.057 2613.02 913.325 2607.75 919.799 2607.75C926.274 2607.75 931.542 2613.02 931.542 2619.49ZM639.6 2754.48C633.126 2754.48 627.858 2759.75 627.858 2766.22C627.858 2772.7 633.126 2777.96 639.6 2777.96C646.074 2777.96 651.343 2772.69 651.343 2766.22C651.343 2759.74 646.075 2754.48 639.6 2754.48ZM883.012 2673.97C889.486 2673.97 894.755 2668.7 894.755 2662.22C894.755 2655.75 889.486 2650.48 883.012 2650.48C876.537 2650.48 871.269 2655.75 871.269 2662.22C871.269 2668.7 876.537 2673.97 883.012 2673.97ZM931.542 2704.51C931.542 2710.99 926.274 2716.25 919.799 2716.25C913.325 2716.25 908.06 2710.99 908.057 2704.51C908.057 2698.04 913.325 2692.76 919.799 2692.76C926.274 2692.76 931.542 2698.04 931.542 2704.51ZM902.585 2777.96C909.059 2777.96 914.328 2772.69 914.328 2766.21C914.328 2759.74 909.059 2754.48 902.585 2754.48C896.111 2754.48 890.842 2759.74 890.842 2766.21C890.842 2772.69 896.11 2777.96 902.585 2777.96Z" fill="white" stroke="#ED1E40" stroke-width="4" mask="url(#path-102-inside-2_1072_248)"/>
<path d="M731.514 2696.73C726.584 2696.73 722.594 2692.73 722.594 2687.81V2636.92C722.594 2631.99 726.592 2628 731.514 2628C736.444 2628 740.434 2632 740.434 2636.92V2687.81C740.442 2692.73 736.444 2696.73 731.514 2696.73Z" fill="#ED1E40"/>
<path d="M758.502 2684.09C753.572 2684.09 749.582 2680.09 749.582 2675.17V2647.56C749.582 2642.63 753.58 2638.64 758.502 2638.64C763.432 2638.64 767.422 2642.63 767.422 2647.56V2675.17C767.43 2680.09 763.432 2684.09 758.502 2684.09Z" fill="#ED1E40"/>
<path d="M803.476 2682.88C799.209 2685.34 793.747 2683.89 791.286 2679.61L775.645 2652.52C773.185 2648.25 774.64 2642.79 778.916 2640.33C783.184 2637.87 788.645 2639.32 791.106 2643.6L806.747 2670.69C809.208 2674.96 807.744 2680.42 803.476 2682.88Z" fill="#8A1E37"/>
<path d="M794.566 2682.88C798.834 2685.34 804.296 2683.89 806.757 2679.61L822.397 2652.52C824.858 2648.25 823.403 2642.79 819.127 2640.33C814.859 2637.87 809.398 2639.32 806.937 2643.6L791.296 2670.69C788.835 2674.96 790.299 2680.42 794.566 2682.88Z" fill="#ED1E40"/>
<rect x="491" y="1816" width="550" height="97" rx="48.5" fill="#ED1E40"/>
<path d="M601.399 1854C603.219 1854 604.799 1854.3 606.139 1854.9C607.499 1855.5 608.539 1856.36 609.259 1857.48C609.979 1858.6 610.339 1859.93 610.339 1861.47C610.339 1862.99 609.979 1864.32 609.259 1865.46C608.539 1866.58 607.499 1867.44 606.139 1868.04C604.799 1868.64 603.219 1868.94 601.399 1868.94H596.659V1875H592.759V1854H601.399ZM601.219 1865.64C602.919 1865.64 604.209 1865.28 605.089 1864.56C605.969 1863.84 606.409 1862.81 606.409 1861.47C606.409 1860.13 605.969 1859.1 605.089 1858.38C604.209 1857.66 602.919 1857.3 601.219 1857.3H596.659V1865.64H601.219ZM627.974 1875L623.684 1868.85C623.504 1868.87 623.234 1868.88 622.874 1868.88H618.134V1875H614.234V1854H622.874C624.694 1854 626.274 1854.3 627.614 1854.9C628.974 1855.5 630.014 1856.36 630.734 1857.48C631.454 1858.6 631.814 1859.93 631.814 1861.47C631.814 1863.05 631.424 1864.41 630.644 1865.55C629.884 1866.69 628.784 1867.54 627.344 1868.1L632.174 1875H627.974ZM627.884 1861.47C627.884 1860.13 627.444 1859.1 626.564 1858.38C625.684 1857.66 624.394 1857.3 622.694 1857.3H618.134V1865.67H622.694C624.394 1865.67 625.684 1865.31 626.564 1864.59C627.444 1863.85 627.884 1862.81 627.884 1861.47ZM636.177 1854H640.077V1875H636.177V1854ZM664.811 1854L655.661 1875H651.821L642.641 1854H646.871L653.861 1870.2L660.911 1854H664.811ZM679.973 1870.14H669.473L667.403 1875H663.383L672.833 1854H676.673L686.153 1875H682.073L679.973 1870.14ZM678.683 1867.08L674.723 1857.9L670.793 1867.08H678.683ZM698.251 1875.3C696.131 1875.3 694.211 1874.84 692.491 1873.92C690.791 1872.98 689.451 1871.69 688.471 1870.05C687.511 1868.41 687.031 1866.56 687.031 1864.5C687.031 1862.44 687.521 1860.59 688.501 1858.95C689.481 1857.31 690.821 1856.03 692.521 1855.11C694.241 1854.17 696.161 1853.7 698.281 1853.7C700.001 1853.7 701.571 1854 702.991 1854.6C704.411 1855.2 705.611 1856.07 706.591 1857.21L704.071 1859.58C702.551 1857.94 700.681 1857.12 698.461 1857.12C697.021 1857.12 695.731 1857.44 694.591 1858.08C693.451 1858.7 692.561 1859.57 691.921 1860.69C691.281 1861.81 690.961 1863.08 690.961 1864.5C690.961 1865.92 691.281 1867.19 691.921 1868.31C692.561 1869.43 693.451 1870.31 694.591 1870.95C695.731 1871.57 697.021 1871.88 698.461 1871.88C700.681 1871.88 702.551 1871.05 704.071 1869.39L706.591 1871.79C705.611 1872.93 704.401 1873.8 702.961 1874.4C701.541 1875 699.971 1875.3 698.251 1875.3ZM719.095 1867.59V1875H715.195V1867.65L706.945 1854H711.115L717.265 1864.23L723.475 1854H727.315L719.095 1867.59ZM727.732 1865.1H735.982V1868.22H727.732V1865.1ZM744.345 1857.27V1863.66H754.485V1866.96H744.345V1875H740.445V1854H755.775V1857.27H744.345ZM759.547 1854H763.447V1875H759.547V1854ZM782.867 1875L778.577 1868.85C778.397 1868.87 778.127 1868.88 777.767 1868.88H773.027V1875H769.127V1854H777.767C779.587 1854 781.167 1854.3 782.507 1854.9C783.867 1855.5 784.907 1856.36 785.627 1857.48C786.347 1858.6 786.707 1859.93 786.707 1861.47C786.707 1863.05 786.317 1864.41 785.537 1865.55C784.777 1866.69 783.677 1867.54 782.237 1868.1L787.067 1875H782.867ZM782.777 1861.47C782.777 1860.13 782.337 1859.1 781.457 1858.38C780.577 1857.66 779.287 1857.3 777.587 1857.3H773.027V1865.67H777.587C779.287 1865.67 780.577 1865.31 781.457 1864.59C782.337 1863.85 782.777 1862.81 782.777 1861.47ZM797.58 1875.3C795.96 1875.3 794.39 1875.07 792.87 1874.61C791.37 1874.15 790.18 1873.54 789.3 1872.78L790.65 1869.75C791.51 1870.43 792.56 1870.99 793.8 1871.43C795.06 1871.85 796.32 1872.06 797.58 1872.06C799.14 1872.06 800.3 1871.81 801.06 1871.31C801.84 1870.81 802.23 1870.15 802.23 1869.33C802.23 1868.73 802.01 1868.24 801.57 1867.86C801.15 1867.46 800.61 1867.15 799.95 1866.93C799.29 1866.71 798.39 1866.46 797.25 1866.18C795.65 1865.8 794.35 1865.42 793.35 1865.04C792.37 1864.66 791.52 1864.07 790.8 1863.27C790.1 1862.45 789.75 1861.35 789.75 1859.97C789.75 1858.81 790.06 1857.76 790.68 1856.82C791.32 1855.86 792.27 1855.1 793.53 1854.54C794.81 1853.98 796.37 1853.7 798.21 1853.7C799.49 1853.7 800.75 1853.86 801.99 1854.18C803.23 1854.5 804.3 1854.96 805.2 1855.56L803.97 1858.59C803.05 1858.05 802.09 1857.64 801.09 1857.36C800.09 1857.08 799.12 1856.94 798.18 1856.94C796.64 1856.94 795.49 1857.2 794.73 1857.72C793.99 1858.24 793.62 1858.93 793.62 1859.79C793.62 1860.39 793.83 1860.88 794.25 1861.26C794.69 1861.64 795.24 1861.94 795.9 1862.16C796.56 1862.38 797.46 1862.63 798.6 1862.91C800.16 1863.27 801.44 1863.65 802.44 1864.05C803.44 1864.43 804.29 1865.02 804.99 1865.82C805.71 1866.62 806.07 1867.7 806.07 1869.06C806.07 1870.22 805.75 1871.27 805.11 1872.21C804.49 1873.15 803.54 1873.9 802.26 1874.46C800.98 1875.02 799.42 1875.3 797.58 1875.3ZM813.904 1857.3H806.944V1854H824.764V1857.3H817.804V1875H813.904V1857.3ZM844.622 1854C846.442 1854 848.022 1854.3 849.362 1854.9C850.722 1855.5 851.762 1856.36 852.482 1857.48C853.202 1858.6 853.562 1859.93 853.562 1861.47C853.562 1862.99 853.202 1864.32 852.482 1865.46C851.762 1866.58 850.722 1867.44 849.362 1868.04C848.022 1868.64 846.442 1868.94 844.622 1868.94H839.882V1875H835.982V1854H844.622ZM844.442 1865.64C846.142 1865.64 847.432 1865.28 848.312 1864.56C849.192 1863.84 849.632 1862.81 849.632 1861.47C849.632 1860.13 849.192 1859.1 848.312 1858.38C847.432 1857.66 846.142 1857.3 844.442 1857.3H839.882V1865.64H844.442ZM867.56 1875.3C865.42 1875.3 863.49 1874.84 861.77 1873.92C860.05 1872.98 858.7 1871.69 857.72 1870.05C856.74 1868.39 856.25 1866.54 856.25 1864.5C856.25 1862.46 856.74 1860.62 857.72 1858.98C858.7 1857.32 860.05 1856.03 861.77 1855.11C863.49 1854.17 865.42 1853.7 867.56 1853.7C869.7 1853.7 871.63 1854.17 873.35 1855.11C875.07 1856.03 876.42 1857.31 877.4 1858.95C878.38 1860.59 878.87 1862.44 878.87 1864.5C878.87 1866.56 878.38 1868.41 877.4 1870.05C876.42 1871.69 875.07 1872.98 873.35 1873.92C871.63 1874.84 869.7 1875.3 867.56 1875.3ZM867.56 1871.88C868.96 1871.88 870.22 1871.57 871.34 1870.95C872.46 1870.31 873.34 1869.43 873.98 1868.31C874.62 1867.17 874.94 1865.9 874.94 1864.5C874.94 1863.1 874.62 1861.84 873.98 1860.72C873.34 1859.58 872.46 1858.7 871.34 1858.08C870.22 1857.44 868.96 1857.12 867.56 1857.12C866.16 1857.12 864.9 1857.44 863.78 1858.08C862.66 1858.7 861.78 1859.58 861.14 1860.72C860.5 1861.84 860.18 1863.1 860.18 1864.5C860.18 1865.9 860.5 1867.17 861.14 1868.31C861.78 1869.43 862.66 1870.31 863.78 1870.95C864.9 1871.57 866.16 1871.88 867.56 1871.88ZM883.004 1854H886.904V1871.7H897.884V1875H883.004V1854ZM900.963 1854H904.863V1875H900.963V1854ZM920.263 1875.3C918.143 1875.3 916.223 1874.84 914.503 1873.92C912.803 1872.98 911.463 1871.69 910.483 1870.05C909.523 1868.41 909.043 1866.56 909.043 1864.5C909.043 1862.44 909.533 1860.59 910.513 1858.95C911.493 1857.31 912.833 1856.03 914.533 1855.11C916.253 1854.17 918.173 1853.7 920.293 1853.7C922.013 1853.7 923.583 1854 925.003 1854.6C926.423 1855.2 927.623 1856.07 928.603 1857.21L926.083 1859.58C924.563 1857.94 922.693 1857.12 920.473 1857.12C919.033 1857.12 917.743 1857.44 916.603 1858.08C915.463 1858.7 914.573 1859.57 913.933 1860.69C913.293 1861.81 912.973 1863.08 912.973 1864.5C912.973 1865.92 913.293 1867.19 913.933 1868.31C914.573 1869.43 915.463 1870.31 916.603 1870.95C917.743 1871.57 919.033 1871.88 920.473 1871.88C922.693 1871.88 924.563 1871.05 926.083 1869.39L928.603 1871.79C927.623 1872.93 926.413 1873.8 924.973 1874.4C923.553 1875 921.983 1875.3 920.263 1875.3ZM941.107 1867.59V1875H937.207V1867.65L928.957 1854H933.127L939.277 1864.23L945.487 1854H949.327L941.107 1867.59Z" fill="white"/>
<circle cx="765.5" cy="2049" r="155.015" fill="black" stroke="#ED1E40" stroke-width="5.97027"/>
<path d="M815.24 2046.21L806.292 2041.04V1976.91C806.292 1954.1 787.737 1935.55 764.929 1935.55C742.121 1935.55 723.565 1954.1 723.565 1976.91V2041.04L714.622 2046.21C706.938 2050.65 702.164 2058.91 702.164 2067.79V2111.49C702.164 2120.36 706.937 2128.63 714.622 2133.07L752.473 2154.92C756.255 2157.11 760.564 2158.26 764.931 2158.26C769.298 2158.26 773.607 2157.11 777.388 2154.92L815.24 2133.07C822.923 2128.64 827.698 2120.37 827.698 2111.49V2067.79C827.698 2058.91 822.926 2050.65 815.24 2046.21L815.24 2046.21ZM733.462 1976.9C733.462 1959.56 747.579 1945.44 764.929 1945.44C782.279 1945.44 796.393 1959.55 796.393 1976.9V2035.32L777.388 2024.35C769.822 2019.98 760.036 2019.98 752.474 2024.35L733.463 2035.32L733.462 1976.9ZM817.799 2111.49C817.799 2116.84 814.923 2121.82 810.29 2124.5L772.439 2146.35C767.88 2148.98 761.978 2148.98 757.423 2146.35L719.571 2124.5C714.939 2121.82 712.063 2116.84 712.063 2111.49L712.064 2067.79C712.064 2062.44 714.942 2057.46 719.573 2054.78L757.425 2032.93C759.703 2031.61 762.303 2030.91 764.933 2030.91C767.564 2030.91 770.162 2031.61 772.442 2032.93L810.294 2054.78C814.923 2057.46 817.802 2062.44 817.802 2067.79L817.799 2111.49Z" fill="white"/>
<path d="M764.928 2067.39C757.205 2067.39 750.922 2073.67 750.922 2081.4C750.922 2087.38 754.695 2092.48 759.979 2094.48V2106.94C759.979 2109.68 762.197 2111.89 764.928 2111.89C767.66 2111.89 769.877 2109.67 769.877 2106.94V2094.48C775.162 2092.48 778.934 2087.38 778.934 2081.4C778.934 2073.67 772.651 2067.39 764.928 2067.39ZM764.928 2077.29C767.193 2077.29 769.036 2079.13 769.036 2081.4C769.036 2083.66 767.193 2085.51 764.928 2085.51C762.663 2085.51 760.82 2083.66 760.82 2081.4C760.82 2079.13 762.663 2077.29 764.928 2077.29Z" fill="white"/>
</svg>
